<svg width="1512" height="448" viewBox="0 0 1512 448" fill="none" xmlns="http://www.w3.org/2000/svg">
<mask id="mask0_53_965" style="mask-type:alpha" maskUnits="userSpaceOnUse" x="0" y="0" width="1512" height="448">
<rect width="1512" height="448" rx="40" fill="white"/>
</mask>
<g mask="url(#mask0_53_965)">
<path fill-rule="evenodd" clip-rule="evenodd" d="M139.467 127.568C139.133 127.241 138.799 126.916 138.464 126.592C138.749 126.971 139.033 127.35 139.316 127.73C139.674 128.029 140.032 128.33 140.389 128.632C140.083 128.276 139.776 127.922 139.467 127.568ZM129.732 117.345C129.427 116.99 129.12 116.636 128.812 116.283C128.477 115.955 128.142 115.63 127.807 115.306C128.092 115.684 128.376 116.063 128.658 116.443C129.017 116.742 129.375 117.043 129.732 117.345ZM125.389 113.778C124.659 112.838 123.918 111.902 123.168 110.971C122.289 110.176 121.405 109.392 120.517 108.618C121.217 109.604 121.907 110.594 122.585 111.588C123.524 112.307 124.459 113.037 125.389 113.778ZM119.075 106.058C118.718 105.756 118.36 105.455 118.002 105.156C117.719 104.776 117.435 104.397 117.149 104.018C117.485 104.342 117.819 104.667 118.153 104.994C118.462 105.348 118.769 105.703 119.075 106.058ZM114.733 102.492C114.002 101.551 113.261 100.615 112.511 99.6838C111.632 98.8888 110.748 98.1045 109.86 97.3308C110.56 98.3165 111.249 99.3066 111.928 100.301C112.867 101.02 113.802 101.75 114.733 102.492ZM109.41 98.4052C108.509 97.1291 107.59 95.8604 106.654 94.5996C48.2384 45.9444 -27.9209 42.1896 -71.5428 88.3896C-115.165 134.59 -111.619 215.251 -65.6788 277.118C-64.4886 278.11 -63.291 279.082 -62.0864 280.037C-102.174 219.224 -103.554 143.413 -61.5722 98.9496C-19.5901 54.4863 51.9903 55.9481 109.41 98.4052ZM-60.2964 282.704C-59.6176 283.698 -58.9282 284.688 -58.2284 285.673C-59.1163 284.9 -59.9999 284.116 -60.8788 283.321C-61.6292 282.39 -62.3696 281.454 -63.1 280.514C-62.1696 281.255 -61.235 281.985 -60.2964 282.704ZM-68.8849 274.387C-112.703 212.69 -115.519 133.511 -72.2293 87.6625C-28.9397 41.8144 45.8206 44.7967 104.075 91.2041C103.344 90.2637 102.604 89.3279 101.854 88.397C42.7638 34.9683 -37.1045 29.3422 -82.1999 77.1028C-127.295 124.863 -121.983 209.452 -71.5359 272.034C-70.6568 272.829 -69.773 273.613 -68.8849 274.387ZM-67.4433 276.947C-67.0859 277.249 -66.7278 277.55 -66.369 277.849C-66.0868 278.229 -65.8029 278.608 -65.5174 278.986C-65.8531 278.662 -66.1881 278.337 -66.5222 278.009C-66.8308 277.656 -67.1378 277.302 -67.4433 276.947ZM-77.8647 267.452C-76.1683 269.394 -74.4269 271.312 -72.6406 273.204C-70.8542 275.096 -69.0432 276.94 -67.2092 278.737C-65.5123 280.68 -63.7703 282.599 -61.9835 284.491C-60.1966 286.384 -58.385 288.228 -56.5505 290.026C-54.8541 291.968 -53.1127 293.886 -51.3263 295.778C-49.5402 297.67 -47.7292 299.514 -45.8954 301.31C-44.1984 303.254 -42.4563 305.172 -40.6693 307.065C-38.8825 308.957 -37.0709 310.802 -35.2363 312.599C-33.5399 314.542 -31.7985 316.46 -30.0122 318.352C-28.2259 320.244 -26.4148 322.088 -24.5808 323.885C-22.8839 325.828 -21.1419 327.746 -19.3551 329.639C-17.5685 331.531 -15.7571 333.376 -13.9228 335.173C-12.2262 337.115 -10.4845 339.034 -8.69798 340.926C51.3367 404.509 139.314 414.42 187.804 363.064C236.294 311.708 226.936 218.532 166.901 154.949C165.114 153.057 163.303 151.212 161.469 149.415C159.772 147.472 158.03 145.554 156.244 143.662C154.457 141.77 152.646 139.926 150.812 138.129C149.116 136.186 147.374 134.267 145.587 132.375C143.8 130.482 141.988 128.637 140.154 126.84C138.457 124.898 136.716 122.98 134.93 121.088C133.143 119.196 131.333 117.352 129.499 115.555C127.802 113.612 126.06 111.693 124.273 109.801C122.486 107.908 120.674 106.063 118.84 104.266C117.143 102.324 115.402 100.406 113.615 98.514C111.829 96.6221 110.018 94.7777 108.184 92.9811C106.487 91.0381 104.745 89.1194 102.958 87.2269C101.171 85.3345 99.3599 83.4896 97.5253 81.6924C95.829 79.75 94.0875 77.8319 92.3012 75.9401C32.2666 12.3573 -55.7103 2.44559 -104.201 53.8017C-152.691 105.158 -143.332 198.334 -83.2977 261.917C-81.5108 263.81 -79.6992 265.654 -77.8647 267.452ZM-76.1746 267.7C-76.5097 267.376 -76.8441 267.051 -77.1778 266.724C-132.246 203.652 -139.405 115.115 -92.857 65.8157C-46.3094 16.5171 37.2865 24.0989 96.8384 82.4198C97.1474 82.7738 97.455 83.1286 97.761 83.4842C38.9264 33.6898 -38.5131 29.3798 -82.8864 76.3757C-127.26 123.372 -123.19 205.388 -76.1746 267.7ZM88.1532 73.0916C29.1929 22.4558 -48.9059 17.8128 -93.5435 65.0886C-138.182 112.365 -133.797 195.081 -85.9856 257.526C-142.737 194.334 -150.578 104.374 -103.514 54.5289C-56.4504 4.68368 28.4877 12.9872 88.1532 73.0916ZM106.492 92.7315C106.778 93.1098 107.062 93.4888 107.344 93.8686C107.703 94.1677 108.061 94.4685 108.418 94.771C108.113 94.416 107.806 94.0619 107.497 93.7085C107.163 93.3812 106.828 93.0556 106.492 92.7315ZM-57.7777 284.6C-56.8769 285.876 -55.9584 287.144 -55.0224 288.405C-53.8319 289.396 -52.6341 290.369 -51.4293 291.323C-52.3041 289.996 -53.1605 288.662 -53.9984 287.321C-55.2646 286.434 -56.5245 285.527 -57.7777 284.6ZM-55.3491 285.127C-56.7756 284.1 -58.1937 283.047 -59.6029 281.97C-101.15 221.04 -103.01 144.291 -60.8857 99.6767C-18.7611 55.0625 53.7056 57.0327 111.235 101.035C112.252 102.528 113.246 104.03 114.216 105.54C57.8574 67.1886 -10.3476 67.2712 -50.9151 110.236C-91.4828 153.202 -91.5607 225.438 -55.3491 285.127ZM-53.3003 286.582C-90.57 226.814 -90.8287 153.963 -50.2286 110.964C-9.62856 67.9639 59.1572 68.2379 115.589 107.71C116.635 109.387 117.651 111.074 118.639 112.771C63.5584 78.5392 -1.1754 80.131 -40.258 121.523C-79.3406 162.916 -80.8436 231.475 -48.5226 289.811C-50.1243 288.766 -51.7171 287.689 -53.3003 286.582ZM-46.7632 290.945C-79.8727 232.564 -78.6163 163.603 -39.5715 122.251C-0.526681 80.8982 64.5859 79.5675 119.709 114.634C120.75 116.47 121.758 118.316 122.731 120.172C69.1453 90.0138 7.93909 93.0518 -29.6009 132.81C-67.1409 172.569 -70.0093 237.393 -41.5343 294.145C-43.2864 293.114 -45.0297 292.048 -46.7632 290.945ZM-39.9804 295.048C-69.0506 238.279 -66.3689 173.206 -28.9144 133.538C8.54016 93.8694 69.9822 91.0292 123.584 121.818C152.654 178.587 149.972 243.66 112.518 283.328C75.0631 322.997 13.6211 325.837 -39.9804 295.048ZM-39.1275 296.694C-38.1544 298.55 -37.1473 300.396 -36.1062 302.232C19.0173 337.298 84.1299 335.968 123.175 294.615C162.219 253.263 163.476 184.302 130.367 125.921C128.633 124.818 126.89 123.752 125.138 122.721C153.613 179.473 150.744 244.297 113.204 284.055C75.6641 323.814 14.4579 326.852 -39.1275 296.694ZM-40.6926 295.803C-39.781 297.576 -38.8386 299.342 -37.8656 301.098C-39.4674 300.052 -41.0603 298.976 -42.6435 297.868C-43.689 296.192 -44.7054 294.505 -45.6926 292.808C-44.0343 293.839 -42.3673 294.837 -40.6926 295.803ZM124.296 121.063C125.971 122.029 127.638 123.027 129.296 124.058C128.309 122.361 127.292 120.674 126.247 118.997C124.663 117.89 123.071 116.813 121.469 115.768C122.442 117.524 123.384 119.29 124.296 121.063ZM-47.4674 291.691C-46.5674 293.273 -45.6423 294.848 -44.6923 296.414C-46.1186 295.387 -47.5367 294.334 -48.9458 293.256C-49.9634 291.764 -50.9572 290.262 -51.9272 288.752C-50.4485 289.758 -48.9617 290.738 -47.4674 291.691ZM120.414 113.888C121.908 114.841 123.395 115.821 124.874 116.828C123.904 115.317 122.91 113.815 121.892 112.322C120.483 111.244 119.065 110.192 117.638 109.164C118.588 110.731 119.513 112.305 120.414 113.888ZM116.287 106.971C117.554 107.858 118.814 108.765 120.067 109.692C119.166 108.416 118.247 107.148 117.311 105.887C116.121 104.896 114.923 103.923 113.718 102.969C114.593 104.296 115.45 105.63 116.287 106.971ZM-55.8636 289.298C-56.1726 288.944 -56.4801 288.589 -56.7862 288.234C-56.429 288.536 -56.0711 288.837 -55.7126 289.136C-55.4302 289.516 -55.1462 289.895 -54.8606 290.273C-55.1957 289.95 -55.53 289.625 -55.8636 289.298ZM-50.2219 294.608C-50.9724 293.677 -51.713 292.741 -52.4436 291.8C-51.513 292.542 -50.5781 293.272 -49.6393 293.991C-48.9603 294.985 -48.2708 295.975 -47.5708 296.961C-48.459 296.187 -49.3427 295.403 -50.2219 294.608ZM-44.3647 299.692C-45.301 298.431 -46.2196 297.163 -47.1206 295.887C-45.8675 296.813 -44.6077 297.72 -43.3416 298.608C-42.5036 299.949 -41.6471 301.283 -40.7722 302.61C-41.9768 301.656 -43.1744 300.684 -44.3647 299.692ZM123.861 295.342C84.7786 336.735 20.0448 338.327 -35.0356 304.095C-34.0483 305.792 -33.0318 307.479 -31.9862 309.156C24.446 348.628 93.2318 348.902 133.832 305.902C174.432 262.903 174.173 190.052 136.904 130.284C135.321 129.177 133.728 128.1 132.126 127.055C164.447 185.39 162.944 253.95 123.861 295.342ZM-41.2704 300.038C-39.7916 301.045 -38.3047 302.024 -36.8104 302.978C-35.9103 304.56 -34.9851 306.135 -34.035 307.701C-35.4614 306.674 -36.8796 305.621 -38.2887 304.544C-39.3064 303.051 -40.3003 301.549 -41.2704 300.038ZM135.531 128.114C134.052 127.108 132.565 126.128 131.071 125.175C130.171 123.593 129.246 122.018 128.296 120.452C129.722 121.479 131.14 122.532 132.549 123.609C133.567 125.102 134.561 126.604 135.531 128.114ZM130.724 120.979C129.471 120.053 128.211 119.146 126.945 118.258C126.107 116.917 125.25 115.583 124.375 114.255C125.58 115.209 126.778 116.182 127.968 117.174C128.904 118.434 129.823 119.703 130.724 120.979ZM-45.055 300.423C-44.7727 300.803 -44.4889 301.182 -44.2035 301.56C-44.5392 301.236 -44.8742 300.91 -45.2085 300.583C-45.5169 300.23 -45.8238 299.876 -46.1293 299.521C-45.7719 299.823 -45.4138 300.124 -45.055 300.423ZM-41.7859 303.088C-41.0555 304.028 -40.3152 304.964 -39.5648 305.895C-38.6858 306.689 -37.8022 307.474 -36.9142 308.247C-37.614 307.262 -38.3034 306.272 -38.9822 305.278C-39.9209 304.559 -40.8555 303.829 -41.7859 303.088ZM-36.4635 307.174C-35.2103 308.1 -33.9505 309.007 -32.6843 309.895C-31.8464 311.236 -30.99 312.57 -30.1152 313.897C-31.32 312.943 -32.5177 311.97 -33.7082 310.979C-34.6442 309.718 -35.5627 308.45 -36.4635 307.174ZM-30.6131 311.325C-29.6432 312.836 -28.6494 314.338 -27.6318 315.83C29.8975 359.833 102.364 361.803 144.489 317.189C186.613 272.575 184.753 195.826 143.206 134.896C141.797 133.819 140.379 132.766 138.952 131.739C175.164 191.428 175.086 263.664 134.518 306.629C93.9508 349.595 25.7457 349.677 -30.6131 311.325ZM137.602 129.545C138.868 130.432 140.128 131.34 141.381 132.266C140.48 130.99 139.562 129.722 138.626 128.461C137.435 127.47 136.237 126.497 135.033 125.542C135.907 126.87 136.764 128.204 137.602 129.545ZM133.243 122.875C134.181 123.594 135.116 124.324 136.047 125.066C135.316 124.125 134.576 123.189 133.825 122.258C132.946 121.463 132.062 120.679 131.174 119.905C131.874 120.89 132.564 121.881 133.243 122.875ZM-34.5494 311.872C-34.8585 311.518 -35.1661 311.163 -35.4722 310.808C-35.1149 311.11 -34.757 311.411 -34.3984 311.71C-34.1159 312.09 -33.8318 312.469 -33.5462 312.847C-33.8814 312.524 -34.2158 312.199 -34.5494 311.872ZM-28.9075 317.182C-29.6581 316.251 -30.3987 315.315 -31.1293 314.374C-30.1988 315.115 -29.2641 315.846 -28.3253 316.565C-27.6462 317.559 -26.9567 318.549 -26.2567 319.535C-27.1448 318.761 -28.0285 317.977 -28.9075 317.182ZM-23.0507 322.266C-23.9869 321.005 -24.9056 319.736 -25.8065 318.46C31.6128 360.918 103.193 362.38 145.175 317.916C187.157 273.453 185.777 197.642 145.69 136.83C146.894 137.784 148.092 138.756 149.282 139.748C195.223 201.616 198.768 282.276 155.146 328.476C111.524 374.676 35.3646 370.921 -23.0507 322.266ZM146.703 136.352C145.773 135.611 144.838 134.881 143.9 134.162C143.221 133.168 142.532 132.178 141.832 131.192C142.72 131.966 143.603 132.75 144.482 133.545C145.232 134.476 145.973 135.412 146.703 136.352ZM149.121 137.879C149.406 138.258 149.69 138.637 149.973 139.017C150.114 139.134 150.254 139.252 150.395 139.37C150.487 139.447 150.579 139.524 150.67 139.601L150.836 139.741L151.047 139.919C150.741 139.564 150.434 139.21 150.126 138.856C149.791 138.529 149.456 138.203 149.121 137.879ZM-20.4719 325.662C37.7824 372.069 112.543 375.051 155.833 329.203C199.122 283.355 196.306 204.176 152.488 142.479C153.377 143.253 154.26 144.037 155.139 144.832C205.586 207.414 210.898 292.003 165.803 339.763C120.708 387.524 40.8392 381.897 -18.2508 328.469C-19.0011 327.538 -19.7415 326.602 -20.4719 325.662ZM-23.7409 322.997C-24.0996 322.698 -24.4576 322.397 -24.8149 322.095C-24.5094 322.45 -24.2024 322.804 -23.8939 323.157C-23.5598 323.484 -23.225 323.81 -22.8894 324.134C-23.1748 323.756 -23.4587 323.377 -23.7409 322.997ZM160.782 150.142C160.448 149.816 160.113 149.49 159.778 149.167C206.794 211.478 210.863 293.494 166.49 340.49C122.116 387.486 44.6765 383.176 -14.1582 333.381C-13.8523 333.737 -13.5449 334.091 -13.2359 334.445C46.3161 392.767 129.912 400.349 176.46 351.05C223.008 301.751 215.849 213.214 160.782 150.142ZM169.589 159.341C217.4 221.786 221.785 304.501 177.147 351.777C132.509 399.053 54.4096 394.41 -4.55077 343.773C55.1148 403.879 140.053 412.182 187.117 362.337C234.181 312.492 226.341 222.533 169.589 159.341Z" fill="#8BFE90" fill-opacity="0.25"/>
<path fill-rule="evenodd" clip-rule="evenodd" d="M1429.8 315.122C1377.54 355.06 1320.22 376.458 1269.84 378.809C1238.3 380.281 1209.52 374.294 1186.37 360.765C1185.93 358.233 1185.56 355.673 1185.26 353.088C1246.31 382.654 1340.1 365.26 1421.55 303.011C1503.01 240.762 1548.16 151.979 1540.91 81.296C1543.13 82.4129 1545.31 83.5935 1547.44 84.8379C1552.26 112.366 1548.56 143.178 1537.3 174.414C1519.3 224.319 1482.06 275.183 1429.8 315.122ZM1548.54 85.4926C1560.67 157.469 1515.22 251.104 1430.37 315.948C1345.51 380.792 1247.28 396.962 1186.61 362.083C1187.06 364.495 1187.57 366.881 1188.16 369.239C1212.38 385.906 1243.83 393.371 1278.65 391.746C1329.04 389.395 1386.35 367.997 1438.62 328.058C1490.88 288.119 1528.12 237.256 1546.11 187.351C1558.54 152.869 1561.77 118.902 1554.47 89.3007C1552.54 87.9729 1550.56 86.7036 1548.54 85.4926ZM1554.09 87.8125C1552.21 86.5433 1550.28 85.3287 1548.31 84.1686C1547.89 81.8255 1547.41 79.506 1546.87 77.2116C1548.68 78.4938 1550.45 79.8285 1552.18 81.2157C1552.87 83.3883 1553.51 85.5877 1554.09 87.8125ZM1555.68 90.1485C1572.95 163.094 1527.32 261.524 1439.18 328.885C1351.03 396.245 1248.45 411.081 1188.53 370.727C1189.11 372.952 1189.75 375.152 1190.45 377.324C1215.41 397.387 1249.43 406.458 1287.46 404.683C1337.85 402.332 1395.17 380.934 1447.43 340.995C1499.69 301.056 1536.93 250.193 1554.92 200.288C1568.5 162.622 1571.1 125.571 1560.99 94.1528C1559.26 92.7655 1557.49 91.4307 1555.68 90.1485ZM1560.41 92.3984C1558.75 91.102 1557.05 89.8528 1555.32 88.6508C1554.79 86.5284 1554.2 84.4281 1553.57 82.3513C1555.15 83.6695 1556.7 85.0334 1558.21 86.4429C1558.99 88.4034 1559.73 90.3891 1560.41 92.3984ZM1562.38 95.2883C1585.01 168.884 1539.32 272.029 1447.99 341.822C1356.67 411.614 1249.84 425.021 1191.03 379.078C1191.71 381.088 1192.44 383.074 1193.23 385.034C1218.61 408.742 1255.09 419.542 1296.28 417.62C1346.67 415.269 1403.98 393.871 1456.24 353.932C1508.51 313.993 1545.75 263.13 1563.74 213.225C1578.44 172.43 1580.27 132.357 1567.02 99.3799C1565.51 97.9704 1563.96 96.6065 1562.38 95.2883ZM1566.11 97.1705C1564.71 95.9155 1563.28 94.6982 1561.82 93.5184C1561.22 91.6791 1560.58 89.8588 1559.9 88.0585C1561.22 89.3473 1562.51 90.6724 1563.76 92.034C1564.59 93.7251 1565.37 95.4376 1566.11 97.1705ZM1568.71 100.996C1596.8 174.935 1551.17 282.649 1456.81 354.759C1362.45 426.868 1251.54 438.786 1194.15 387.244C1194.88 388.976 1195.67 390.689 1196.49 392.38C1221.94 419.975 1260.79 432.624 1305.09 430.557C1355.48 428.206 1412.8 406.808 1465.06 366.869C1517.32 326.93 1554.56 276.067 1572.55 226.162C1588.37 182.287 1589.28 139.247 1572.58 104.971C1571.32 103.609 1570.03 102.284 1568.71 100.996ZM1570.99 101.839C1569.96 100.789 1568.91 99.7618 1567.84 98.7574C1567.27 97.3649 1566.68 95.9847 1566.07 94.6175C1567.02 95.7163 1567.94 96.8373 1568.85 97.9806C1569.59 99.2532 1570.3 100.54 1570.99 101.839ZM1574.88 107.555C1608.24 181.563 1562.73 293.484 1465.62 367.696C1368.51 441.907 1253.88 452.367 1198.08 395.511C1198.76 396.811 1199.48 398.098 1200.21 399.37C1225.4 431.091 1266.54 445.704 1313.91 443.494C1364.29 441.143 1421.61 419.745 1473.87 379.806C1526.13 339.867 1563.37 289.004 1581.37 239.099C1598.28 192.186 1598.15 146.228 1577.67 110.918C1576.76 109.774 1575.83 108.653 1574.88 107.555ZM1574 105.035C1573.79 104.808 1573.59 104.582 1573.38 104.357C1573.24 104.078 1573.11 103.8 1572.97 103.522C1573.14 103.773 1573.31 104.024 1573.49 104.276C1573.66 104.528 1573.83 104.781 1574 105.035ZM1578.46 110.309C1577.15 108.052 1575.76 105.838 1574.28 103.669C1572.8 101.5 1571.26 99.4011 1569.65 97.3717C1568.34 95.1148 1566.94 92.9008 1565.47 90.732C1563.99 88.5632 1562.44 86.4641 1560.83 84.4347C1559.52 82.1778 1558.13 79.9637 1556.65 77.795C1555.17 75.6262 1553.63 73.5271 1552.02 71.4976C1550.71 69.2408 1549.32 67.0267 1547.84 64.8579C1546.36 62.6892 1544.82 60.5901 1543.21 58.5606C1541.9 56.3038 1540.5 54.0897 1539.02 51.9209C1537.55 49.7523 1536 47.6534 1534.39 45.624C1533.08 43.3671 1531.69 41.153 1530.21 38.9842C1528.73 36.8153 1527.19 34.7162 1525.58 32.6866C1524.27 30.4299 1522.87 28.2159 1521.4 26.0472C1471.74 -46.8308 1346.54 -40.9885 1241.75 39.0963C1136.95 119.181 1092.25 243.182 1141.9 316.06C1143.38 318.229 1144.92 320.328 1146.53 322.358C1147.84 324.614 1149.24 326.828 1150.72 328.997C1152.19 331.166 1153.74 333.265 1155.35 335.294C1156.66 337.551 1158.05 339.765 1159.53 341.934C1161.01 344.103 1162.55 346.202 1164.16 348.231C1165.47 350.488 1166.87 352.702 1168.34 354.871C1169.82 357.04 1171.37 359.139 1172.97 361.168C1174.29 363.425 1175.68 365.639 1177.16 367.808C1178.64 369.977 1180.18 372.076 1181.79 374.105C1183.1 376.362 1184.49 378.576 1185.97 380.745C1187.45 382.914 1188.99 385.013 1190.6 387.042C1191.91 389.299 1193.31 391.513 1194.79 393.682C1196.26 395.851 1197.81 397.95 1199.42 399.979C1200.73 402.236 1202.12 404.45 1203.6 406.619C1253.25 479.497 1378.45 473.655 1483.25 393.57C1588.04 313.485 1632.75 189.484 1583.09 116.606C1581.62 114.437 1580.07 112.338 1578.46 110.309ZM1581.78 116.459C1618.7 190.383 1573.32 305.061 1474.44 380.633C1375.55 456.205 1258.48 465.666 1203.88 405.253C1204.05 405.507 1204.22 405.76 1204.39 406.012C1228.97 442.09 1272.32 458.783 1322.72 456.431C1373.11 454.08 1430.42 432.682 1482.69 392.743C1534.95 352.804 1572.19 301.941 1590.18 252.036C1608.17 202.123 1606.88 153.291 1582.3 117.213C1582.13 116.961 1581.95 116.71 1581.78 116.459ZM1196.1 393.829C1195.96 393.551 1195.82 393.273 1195.69 392.994C1195.48 392.769 1195.27 392.543 1195.07 392.316C1195.24 392.57 1195.41 392.822 1195.58 393.075C1195.75 393.327 1195.93 393.578 1196.1 393.829ZM1194.18 389.796C1193.57 388.429 1192.98 387.049 1192.42 385.657C1191.35 384.652 1190.29 383.625 1189.26 382.574C1189.95 383.874 1190.66 385.161 1191.4 386.433C1192.31 387.577 1193.24 388.698 1194.18 389.796ZM1191.54 383.418C1190.86 381.618 1190.21 379.798 1189.62 377.959C1188.16 376.779 1186.73 375.561 1185.33 374.306C1186.07 376.039 1186.85 377.752 1187.68 379.443C1188.93 380.804 1190.22 382.13 1191.54 383.418ZM1189.06 376.189C1188.42 374.112 1187.84 372.012 1187.31 369.889C1185.57 368.687 1183.87 367.438 1182.21 366.141C1182.9 368.151 1183.63 370.136 1184.42 372.097C1185.93 373.507 1187.47 374.87 1189.06 376.189ZM1186.94 368.391C1186.4 366.097 1185.92 363.778 1185.5 361.435C1183.53 360.274 1181.6 359.06 1179.72 357.791C1180.3 360.015 1180.94 362.215 1181.63 364.387C1183.36 365.774 1185.13 367.109 1186.94 368.391ZM1185.27 360.111C1184.85 357.625 1184.5 355.113 1184.22 352.578C1182.03 351.495 1179.89 350.351 1177.8 349.146C1178.25 351.558 1178.76 353.944 1179.34 356.302C1181.27 357.63 1183.25 358.9 1185.27 360.111ZM1184.09 351.37C1181.87 350.253 1179.69 349.073 1177.56 347.828C1172.73 320.3 1176.44 289.488 1187.7 258.252C1205.69 208.347 1242.93 157.484 1295.19 117.545C1347.46 77.6057 1404.77 56.2083 1455.16 53.857C1486.7 52.3853 1515.48 58.3722 1538.62 71.9008C1539.07 74.4329 1539.44 76.9928 1539.74 79.5783C1478.69 50.0126 1384.9 67.4059 1303.44 129.655C1221.99 191.904 1176.84 280.687 1184.09 351.37ZM1185.12 351.885C1182.42 326.686 1186.45 299.107 1196.51 271.189C1214.51 221.284 1251.75 170.421 1304.01 130.482C1356.27 90.5427 1413.59 69.1453 1463.97 66.794C1492.16 65.4787 1518.15 70.1214 1539.87 80.7816C1542.58 105.98 1538.55 133.56 1528.48 161.477C1510.49 211.382 1473.25 262.246 1420.99 302.185C1368.73 342.123 1311.41 363.521 1261.02 365.872C1232.83 367.187 1206.85 362.545 1185.12 351.885ZM1540.78 80.0886C1540.5 77.5531 1540.15 75.0414 1539.73 72.5555C1541.75 73.7666 1543.72 75.036 1545.65 76.3638C1546.24 78.7221 1546.75 81.1082 1547.2 83.52C1545.1 82.3153 1542.96 81.1716 1540.78 80.0886ZM1176.68 348.498C1177.1 350.841 1177.58 353.16 1178.13 355.455C1176.32 354.172 1174.55 352.838 1172.82 351.45C1172.12 349.278 1171.48 347.078 1170.91 344.854C1172.79 346.123 1174.72 347.337 1176.68 348.498ZM1170.53 343.365C1172.46 344.693 1174.43 345.963 1176.45 347.174C1164.33 275.197 1209.78 181.562 1294.63 116.718C1379.48 51.8744 1477.71 35.7037 1538.38 70.5829C1537.94 68.1711 1537.42 65.7851 1536.84 63.4268C1512.62 46.7602 1481.16 39.2954 1446.35 40.92C1395.96 43.2713 1338.64 64.6687 1286.38 104.608C1234.12 144.547 1196.88 195.41 1178.89 245.315C1166.46 279.797 1163.23 313.764 1170.53 343.365ZM1545.28 74.8756C1543.39 73.6063 1541.47 72.3917 1539.5 71.2315C1539.08 68.8885 1538.6 66.5689 1538.05 64.2746C1539.87 65.5568 1541.64 66.8916 1543.36 68.2789C1544.06 70.4514 1544.7 72.6509 1545.28 74.8756ZM1546.5 75.7139C1548.24 76.9159 1549.94 78.165 1551.6 79.4614C1550.91 77.452 1550.18 75.4664 1549.39 73.5058C1547.88 72.0964 1546.34 70.7326 1544.75 69.4144C1545.39 71.4912 1545.97 73.5915 1546.5 75.7139ZM1553.01 80.5814C1554.47 81.7612 1555.9 82.9785 1557.29 84.2334C1556.55 82.5006 1555.77 80.7881 1554.95 79.097C1553.69 77.7354 1552.4 76.4103 1551.08 75.1215C1551.77 76.9218 1552.41 78.7421 1553.01 80.5814ZM1559.02 85.8204C1560.09 86.8248 1561.14 87.8522 1562.17 88.9025C1561.49 87.6026 1560.78 86.3162 1560.04 85.0435C1559.13 83.9003 1558.2 82.7793 1557.25 81.6805C1557.87 83.0477 1558.46 84.4279 1559.02 85.8204ZM1564.57 91.42C1564.77 91.645 1564.98 91.871 1565.18 92.0979C1565.01 91.8444 1564.84 91.5915 1564.67 91.3392C1564.5 91.0869 1564.33 90.8356 1564.15 90.5852C1564.29 90.8629 1564.43 91.1412 1564.57 91.42ZM1186.87 380.057C1187.01 380.336 1187.15 380.614 1187.28 380.892C1187.11 380.641 1186.94 380.39 1186.77 380.138C1186.59 379.885 1186.42 379.633 1186.25 379.379C1186.46 379.606 1186.67 379.832 1186.87 380.057ZM1183.6 372.719C1184.16 374.112 1184.75 375.492 1185.37 376.859C1184.42 375.761 1183.49 374.64 1182.59 373.496C1181.85 372.224 1181.14 370.937 1180.45 369.637C1181.48 370.688 1182.53 371.715 1183.6 372.719ZM1180.8 365.022C1181.4 366.861 1182.04 368.681 1182.73 370.481C1181.41 369.193 1180.12 367.867 1178.86 366.506C1178.04 364.815 1177.26 363.102 1176.52 361.369C1177.91 362.624 1179.34 363.842 1180.8 365.022ZM1175.6 359.16C1177.11 360.57 1178.66 361.933 1180.24 363.252C1179.61 361.175 1179.02 359.075 1178.49 356.952C1176.76 355.75 1175.06 354.501 1173.4 353.205C1174.08 355.214 1174.82 357.2 1175.6 359.16ZM1548.48 71.2964C1547.08 70.0415 1545.65 68.8242 1544.19 67.6445C1543.6 65.8052 1542.95 63.9849 1542.27 62.1847C1543.59 63.4734 1544.88 64.7985 1546.13 66.1599C1546.96 67.8511 1547.74 69.5636 1548.48 71.2964ZM1553.36 75.9655C1552.33 74.9151 1551.28 73.8878 1550.21 72.8834C1549.65 71.4908 1549.06 70.1107 1548.44 68.7435C1549.39 69.8423 1550.32 70.9633 1551.22 72.1065C1551.96 73.3792 1552.67 74.6656 1553.36 75.9655ZM1556.37 79.1609C1556.16 78.9339 1555.96 78.708 1555.75 78.483C1555.62 78.2041 1555.48 77.9259 1555.34 77.6482C1555.51 77.8986 1555.69 78.1499 1555.86 78.4022C1556.03 78.6544 1556.2 78.9074 1556.37 79.1609ZM1178.47 367.955C1178.33 367.677 1178.19 367.399 1178.06 367.12C1177.85 366.895 1177.65 366.669 1177.44 366.442C1177.53 366.578 1177.62 366.714 1177.71 366.85C1177.79 366.967 1177.87 367.084 1177.95 367.201C1178.06 367.355 1178.16 367.508 1178.27 367.662C1178.34 367.76 1178.4 367.857 1178.47 367.955ZM1176.56 363.922C1175.94 362.555 1175.35 361.175 1174.79 359.782C1173.72 358.778 1172.67 357.751 1171.64 356.7C1172.32 358 1173.03 359.287 1173.77 360.559C1174.68 361.703 1175.61 362.824 1176.56 363.922ZM1173.91 357.544C1173.23 355.744 1172.59 353.924 1171.99 352.085C1170.53 350.905 1169.1 349.687 1167.7 348.433C1168.44 350.165 1169.22 351.878 1170.05 353.569C1171.3 354.93 1172.59 356.256 1173.91 357.544ZM1171.43 350.315C1170.79 348.238 1170.21 346.138 1169.68 344.015C1167.94 342.813 1166.25 341.564 1164.59 340.268C1165.27 342.277 1166 344.263 1166.79 346.223C1168.3 347.633 1169.85 348.996 1171.43 350.315ZM1169.31 342.518C1167.5 341.235 1165.73 339.901 1164.01 338.513C1153.9 307.095 1156.49 270.044 1170.07 232.378C1188.06 182.473 1225.3 131.61 1277.57 91.6706C1329.83 51.7316 1387.14 30.3343 1437.53 27.983C1475.56 26.2083 1509.58 35.2792 1534.55 55.3418C1535.25 57.5144 1535.89 59.7138 1536.46 61.9386C1476.54 21.5846 1373.96 36.4203 1285.82 103.781C1197.67 171.142 1152.04 269.572 1169.31 342.518ZM1537.69 62.7769C1537.16 60.6545 1536.58 58.5541 1535.94 56.4774C1537.52 57.7956 1539.07 59.1595 1540.58 60.569C1541.37 62.5296 1542.1 64.5152 1542.78 66.5246C1541.12 65.2281 1539.42 63.9789 1537.69 62.7769ZM1163.18 339.148C1163.77 340.987 1164.41 342.807 1165.1 344.607C1163.78 343.319 1162.49 341.993 1161.23 340.632C1160.41 338.941 1159.63 337.228 1158.89 335.496C1160.29 336.75 1161.72 337.968 1163.18 339.148ZM1157.97 333.286C1159.48 334.696 1161.03 336.059 1162.62 337.378C1139.99 263.782 1185.68 160.637 1277 90.8441C1368.33 21.0517 1475.16 7.64493 1533.97 53.5875C1533.29 51.5781 1532.55 49.5925 1531.77 47.6319C1506.39 23.924 1469.91 13.1239 1428.72 15.046C1378.33 17.3972 1321.01 38.7946 1268.75 78.7335C1216.49 118.672 1179.25 169.536 1161.26 219.441C1146.55 260.236 1144.73 300.309 1157.97 333.286ZM1539.66 58.3596C1538.27 57.1046 1536.84 55.8873 1535.38 54.7075C1534.78 52.8682 1534.14 51.0479 1533.46 49.2476C1534.78 50.5364 1536.07 51.8616 1537.32 53.2232C1538.14 54.9143 1538.93 56.6268 1539.66 58.3596ZM1541.39 59.9466C1542.46 60.9509 1543.52 61.9782 1544.55 63.0284C1543.86 61.7286 1543.15 60.4421 1542.41 59.1695C1541.5 58.0264 1540.57 56.9055 1539.63 55.8068C1540.24 57.1739 1540.83 58.554 1541.39 59.9466ZM1546.94 65.546C1547.14 65.771 1547.35 65.9969 1547.56 66.2239C1547.39 65.9703 1547.22 65.7174 1547.04 65.4651C1546.87 65.2129 1546.7 64.9615 1546.53 64.7111C1546.66 64.9888 1546.8 65.2671 1546.94 65.546ZM1169.24 354.183C1169.38 354.462 1169.52 354.74 1169.66 355.018L1169.58 354.9C1169.54 354.849 1169.5 354.797 1169.47 354.746C1169.42 354.678 1169.38 354.611 1169.33 354.543L1169.21 354.373L1169.14 354.264C1168.97 354.011 1168.8 353.759 1168.63 353.505C1168.83 353.732 1169.04 353.958 1169.24 354.183ZM1164.96 347.622C1165.87 348.766 1166.79 349.887 1167.74 350.985C1167.13 349.618 1166.54 348.238 1165.97 346.845C1164.9 345.841 1163.85 344.814 1162.82 343.763C1163.51 345.063 1164.22 346.35 1164.96 347.622ZM1538.74 53.2868C1538.54 53.06 1538.33 52.8341 1538.12 52.6092C1537.99 52.3305 1537.85 52.0523 1537.71 51.7747C1537.89 52.0249 1538.06 52.276 1538.23 52.5281C1538.4 52.7804 1538.57 53.0333 1538.74 53.2868ZM1160.62 341.635C1160.56 341.505 1160.49 341.376 1160.43 341.246C1160.31 341.115 1160.19 340.984 1160.07 340.852C1159.98 340.757 1159.9 340.663 1159.81 340.568C1159.98 340.821 1160.15 341.074 1160.32 341.327L1160.44 341.493L1160.55 341.663C1160.65 341.802 1160.75 341.942 1160.84 342.081C1160.77 341.932 1160.69 341.784 1160.62 341.635ZM1158.93 338.048C1158.31 336.681 1157.72 335.301 1157.16 333.908C1156.09 332.904 1155.04 331.877 1154.01 330.826C1154.69 332.126 1155.41 333.413 1156.14 334.685C1157.05 335.828 1157.98 336.949 1158.93 338.048ZM1156.28 331.67C1154.96 330.382 1153.68 329.056 1152.42 327.695C1135.71 293.419 1136.63 250.379 1152.44 206.504C1170.44 156.599 1207.68 105.735 1259.94 65.7965C1312.2 25.8576 1369.52 4.46022 1419.9 2.10894C1464.2 0.0417601 1503.06 12.6905 1528.51 40.2861C1529.33 41.9772 1530.11 43.6897 1530.85 45.4225C1473.45 -6.12011 1362.55 5.79768 1268.19 77.9071C1173.83 150.017 1128.19 257.73 1156.28 331.67ZM1532.58 47.0095C1532.02 45.617 1531.43 44.2369 1530.81 42.8697C1531.76 43.9686 1532.69 45.0896 1533.6 46.2329C1534.33 47.5055 1535.05 48.7919 1535.73 50.0916C1534.7 49.0413 1533.65 48.0139 1532.58 47.0095ZM1151.62 328.309C1151.75 328.588 1151.89 328.866 1152.03 329.143L1151.95 329.037L1151.86 328.907L1151.78 328.777C1151.69 328.648 1151.6 328.519 1151.51 328.39L1151.42 328.254C1151.32 328.113 1151.23 327.973 1151.13 327.831C1151.09 327.765 1151.04 327.698 1151 327.631C1151.2 327.858 1151.41 328.084 1151.62 328.309ZM1147.33 321.749C1148.24 322.892 1149.17 324.013 1150.11 325.111C1116.76 251.103 1162.27 139.181 1259.37 64.9701C1356.48 -9.24124 1471.12 -19.7008 1526.92 37.1545C1526.23 35.8547 1525.52 34.5682 1524.78 33.2955C1499.6 1.57551 1458.46 -13.0381 1411.09 -10.8278C1360.7 -8.47654 1303.39 12.9208 1251.12 52.8598C1198.86 92.7987 1161.62 143.662 1143.63 193.567C1126.72 240.48 1126.85 286.438 1147.33 321.749ZM1529.93 40.3501C1529.72 40.1231 1529.52 39.8971 1529.31 39.6721C1529.17 39.3932 1529.04 39.1149 1528.9 38.8372C1529.07 39.0876 1529.24 39.339 1529.42 39.5914C1529.59 39.8437 1529.76 40.0966 1529.93 40.3501ZM1521.11 27.4129C1466.51 -32.9996 1349.45 -23.5386 1250.56 52.0333C1151.67 127.605 1106.29 242.284 1143.22 316.207C1143.04 315.957 1142.87 315.705 1142.7 315.453C1118.12 279.375 1116.82 230.543 1134.82 180.63C1152.81 130.725 1190.05 79.8617 1242.31 39.9228C1294.57 -0.016146 1351.89 -21.4135 1402.28 -23.7648C1452.67 -26.1165 1496.02 -9.42347 1520.6 26.6544C1520.77 26.9066 1520.94 27.1594 1521.11 27.4129Z" fill="#8BFE90" fill-opacity="0.65"/>
<path fill-rule="evenodd" clip-rule="evenodd" d="M1721.83 564.022C1720.59 565.68 1719.33 567.329 1718.04 568.969C1716.64 570.495 1715.23 572.002 1713.8 573.489C1714.99 571.761 1716.17 570.024 1717.32 568.28C1718.83 566.88 1720.34 565.461 1721.83 564.022ZM1734.13 550.001C1732.73 551.526 1731.31 553.033 1729.89 554.52C1731.08 552.791 1732.25 551.054 1733.41 549.309C1734.92 547.91 1736.43 546.491 1737.92 545.052C1736.68 546.71 1735.41 548.36 1734.13 550.001ZM1741.63 539.999C1739.67 541.967 1737.69 543.899 1735.69 545.796C1737.22 543.411 1738.71 541.012 1740.16 538.6C1742.27 536.812 1744.37 534.985 1746.44 533.122C1744.87 535.429 1743.27 537.722 1741.63 539.999ZM1749.49 530.34C1748.34 532.085 1747.17 533.821 1745.98 535.55C1747.4 534.062 1748.82 532.555 1750.22 531.029C1751.5 529.389 1752.77 527.739 1754.01 526.082C1752.52 527.521 1751.01 528.941 1749.49 530.34ZM1757.72 521.029C1755.76 522.997 1753.78 524.93 1751.78 526.826C1817.83 423.738 1814.71 294.18 1739.34 222.471C1663.96 150.763 1542 161.325 1452.28 241.899C1453.85 239.592 1455.45 237.299 1457.09 235.022C1547.38 144.478 1676.49 129.783 1754.78 204.264C1833.07 278.745 1833.07 416.267 1757.72 521.029ZM1766.31 512.061C1764.91 513.586 1763.49 515.093 1762.07 516.58C1834.04 412.179 1832.94 277.248 1755.42 203.501C1677.91 129.755 1551.12 143.022 1460.8 229.969C1462.04 228.311 1463.31 226.661 1464.59 225.02C1555.12 126.545 1690.06 108.419 1770.87 185.294C1851.67 262.17 1849.08 406.207 1766.31 512.061ZM1767.03 512.75C1764.49 516.006 1761.87 519.225 1759.17 522.405C1756.47 525.585 1753.73 528.689 1750.95 531.718C1748.4 534.974 1745.78 538.194 1743.08 541.375C1740.38 544.555 1737.64 547.661 1734.86 550.69C1732.31 553.946 1729.69 557.165 1726.99 560.345C1724.29 563.525 1721.55 566.629 1718.77 569.659C1716.22 572.915 1713.6 576.134 1710.9 579.315C1708.21 582.495 1705.46 585.6 1702.68 588.629C1700.13 591.885 1697.51 595.104 1694.81 598.285C1692.12 601.465 1689.37 604.569 1686.59 607.598C1684.04 610.855 1681.42 614.074 1678.72 617.255C1676.03 620.435 1673.28 623.541 1670.5 626.571C1667.95 629.826 1665.33 633.045 1662.64 636.225C1572 743.089 1430.58 765.078 1346.76 685.34C1262.95 605.601 1268.47 454.33 1359.11 347.466C1361.81 344.286 1364.55 341.18 1367.33 338.15C1369.88 334.895 1372.5 331.676 1375.2 328.496C1377.89 325.316 1380.64 322.212 1383.42 319.183C1385.97 315.927 1388.59 312.707 1391.29 309.526C1393.98 306.346 1396.72 303.242 1399.51 300.212C1402.06 296.956 1404.68 293.737 1407.37 290.556C1410.07 287.376 1412.81 284.272 1415.6 281.242C1418.14 277.986 1420.77 274.767 1423.46 271.586C1426.16 268.406 1428.9 265.3 1431.69 262.271C1434.23 259.015 1436.86 255.796 1439.55 252.616C1442.25 249.436 1444.99 246.332 1447.78 243.302C1450.32 240.046 1452.94 236.827 1455.64 233.646C1458.34 230.466 1461.08 227.36 1463.87 224.331C1466.41 221.075 1469.03 217.856 1471.73 214.676C1562.37 107.813 1703.79 85.8229 1787.6 165.561C1871.42 245.3 1865.89 396.571 1775.26 503.435C1772.56 506.615 1769.82 509.721 1767.03 512.75ZM1472.51 215.307C1562.91 108.772 1703.68 87.0986 1786.96 166.324C1870.23 245.55 1864.93 396.106 1774.58 502.689C1850.14 397.623 1850.29 259.479 1771.51 184.531C1692.73 109.584 1563.06 124.507 1472.51 215.307ZM1452.74 239.471C1451.32 240.959 1449.9 242.466 1448.5 243.992C1447.22 245.632 1445.96 247.281 1444.71 248.939C1446.21 247.5 1447.71 246.08 1449.23 244.681C1450.38 242.936 1451.55 241.199 1452.74 239.471ZM1446.94 248.195C1444.94 250.091 1442.96 252.024 1441 253.992C1439.36 256.27 1437.76 258.562 1436.19 260.87C1438.27 259.006 1440.36 257.179 1442.47 255.39C1443.92 252.978 1445.41 250.579 1446.94 248.195ZM1449.96 245.374C1539.66 162.584 1662.95 151.183 1738.69 223.234C1814.43 295.285 1816.9 426.333 1748.77 529.647C1746.46 531.777 1744.13 533.86 1741.78 535.896C1801.47 434.537 1796.23 310.872 1723.25 241.441C1650.26 172.011 1533.61 179.707 1444.84 253.404C1446.5 250.71 1448.2 248.033 1449.96 245.374ZM1443.2 256.087C1441.43 259.027 1439.72 261.987 1438.06 264.964C1525.54 198.237 1636.7 193.383 1707.16 260.411C1777.61 327.44 1784.94 445.016 1731.65 544.27C1734.27 542.205 1736.86 540.082 1739.43 537.904C1800.56 436.392 1795.74 311.787 1722.6 242.204C1649.46 172.621 1531.97 180.871 1443.2 256.087ZM1440.86 258.095C1439.22 260.87 1437.64 263.662 1436.1 266.47C1433.63 268.388 1431.18 270.357 1428.75 272.375C1430.41 269.681 1432.11 267.004 1433.87 264.345C1436.18 262.214 1438.51 260.131 1440.86 258.095ZM1434.9 268.691C1432.28 270.757 1429.68 272.879 1427.11 275.058C1425.34 277.998 1423.63 280.957 1421.97 283.934C1424.67 281.875 1427.39 279.874 1430.13 277.932C1431.66 274.836 1433.25 271.754 1434.9 268.691ZM1436.84 267.171C1435.1 270.346 1433.43 273.539 1431.82 276.749C1517.66 216.946 1623.23 214.844 1691.07 279.381C1758.91 343.918 1768.22 455.314 1721.25 552.098C1724.09 550.059 1726.91 547.957 1729.71 545.79C1784.03 446.435 1777.01 328.244 1706.51 261.174C1636.01 194.104 1524.3 199.346 1436.84 267.171ZM1728.49 547.997C1725.79 550.057 1723.06 552.057 1720.32 553.999C1718.79 557.095 1717.2 560.176 1715.56 563.24C1718.18 561.174 1720.77 559.052 1723.34 556.873C1725.11 553.933 1726.83 550.974 1728.49 547.997ZM1730.44 546.491C1728.91 549.299 1727.32 552.091 1725.69 554.866C1728.04 552.83 1730.37 550.747 1732.68 548.616C1734.43 545.957 1736.14 543.28 1737.8 540.586C1735.37 542.604 1732.91 544.573 1730.44 546.491ZM1718.64 555.182C1717.03 558.392 1715.35 561.585 1713.62 564.759C1710.82 566.926 1708 569.029 1705.16 571.068C1706.77 567.764 1708.3 564.442 1709.78 561.106C1712.75 559.199 1715.71 557.224 1718.64 555.182ZM1719.58 553.291C1716.58 555.409 1713.55 557.456 1710.51 559.432C1751.29 465.48 1740.11 360.317 1674.98 298.351C1609.84 236.386 1509.92 235.854 1426.08 288.845C1427.61 285.427 1429.21 282.025 1430.88 278.64C1516.69 218.021 1622.62 215.637 1690.42 280.144C1758.23 344.651 1767.31 456.446 1719.58 553.291ZM1429.2 279.833C1427.6 283.138 1426.06 286.459 1424.59 289.795C1421.62 291.702 1418.66 293.677 1415.73 295.719C1417.34 292.509 1419.01 289.316 1420.75 286.142C1423.54 283.975 1426.36 281.872 1429.2 279.833ZM1423.86 291.469C1420.81 293.445 1417.79 295.492 1414.79 297.61C1367.05 394.455 1376.14 506.25 1443.94 570.757C1511.75 635.264 1617.67 632.88 1703.49 572.261C1705.16 568.876 1706.75 565.474 1708.28 562.056C1624.44 615.047 1524.52 614.515 1459.39 552.55C1394.25 490.584 1383.07 385.421 1423.86 291.469ZM1709.02 560.389C1750.39 466.412 1739.38 361.001 1674.33 299.114C1609.28 237.227 1509.15 236.908 1425.34 290.512C1383.98 384.489 1394.98 489.9 1460.03 551.787C1525.09 613.674 1625.22 613.993 1709.02 560.389ZM1428.62 267.909C1430.12 266.47 1431.62 265.051 1433.14 263.652C1434.29 261.907 1435.46 260.17 1436.65 258.441C1435.23 259.928 1433.82 261.435 1432.41 262.96C1431.13 264.601 1429.87 266.251 1428.62 267.909ZM1424.91 272.962C1426.87 270.994 1428.85 269.061 1430.85 267.165C1429.32 269.55 1427.83 271.949 1426.38 274.361C1424.27 276.15 1422.18 277.976 1420.1 279.84C1421.67 277.532 1423.27 275.24 1424.91 272.962ZM1420.01 285.44C1421.55 282.633 1423.13 279.841 1424.77 277.065C1422.42 279.101 1420.09 281.184 1417.78 283.315C1416.02 285.974 1414.32 288.651 1412.66 291.345C1415.09 289.327 1417.54 287.359 1420.01 285.44ZM1411.02 294.028C1413.59 291.849 1416.19 289.727 1418.81 287.661C1417.16 290.725 1415.57 293.806 1414.05 296.902C1411.3 298.844 1408.58 300.844 1405.88 302.904C1407.54 299.927 1409.25 296.968 1411.02 294.028ZM1404.66 305.111C1407.45 302.944 1410.27 300.842 1413.11 298.803C1366.15 395.587 1375.46 506.983 1443.3 571.52C1511.14 636.057 1616.71 633.956 1702.55 574.152C1700.94 577.362 1699.26 580.556 1697.53 583.73C1610.06 651.555 1498.36 656.797 1427.86 589.727C1357.36 522.657 1350.34 404.466 1404.66 305.111ZM1699.47 582.21C1701.12 579.147 1702.7 576.065 1704.23 572.969C1706.98 571.027 1709.7 569.026 1712.4 566.967C1710.74 569.944 1709.02 572.903 1707.25 575.843C1704.68 578.022 1702.09 580.144 1699.47 582.21ZM1709.6 573.836C1711.23 571.06 1712.82 568.268 1714.36 565.461C1716.83 563.542 1719.28 561.574 1721.71 559.556C1720.05 562.25 1718.34 564.927 1716.59 567.586C1714.28 569.717 1711.95 571.8 1709.6 573.836ZM1719.6 564.766C1721.13 562.381 1722.62 559.982 1724.08 557.57C1726.18 555.781 1728.28 553.955 1730.35 552.091C1728.79 554.398 1727.18 556.691 1725.54 558.969C1723.58 560.937 1721.6 562.87 1719.6 564.766ZM1420.56 277.411C1419.14 278.899 1417.73 280.406 1416.32 281.932C1415.04 283.572 1413.78 285.222 1412.53 286.88C1414.03 285.44 1415.53 284.021 1417.05 282.622C1418.2 280.877 1419.37 279.14 1420.56 277.411ZM1414.76 286.135C1412.77 288.032 1410.78 289.964 1408.82 291.933C1407.18 294.21 1405.58 296.503 1404.01 298.81C1406.09 296.946 1408.18 295.12 1410.29 293.331C1411.74 290.919 1413.24 288.52 1414.76 286.135ZM1408.68 296.035C1406.33 298.071 1404 300.155 1401.69 302.285C1399.93 304.944 1398.23 307.621 1396.57 310.315C1399 308.297 1401.45 306.328 1403.92 304.41C1405.46 301.602 1407.05 298.81 1408.68 296.035ZM1402.72 306.631C1400.1 308.697 1397.51 310.819 1394.93 312.998C1333.81 414.509 1338.62 539.114 1411.77 608.697C1484.91 678.28 1602.4 670.03 1691.16 594.813C1692.93 591.873 1694.65 588.914 1696.31 585.937C1608.83 652.664 1497.67 657.518 1427.21 590.49C1356.75 523.461 1349.43 405.885 1402.72 306.631ZM1698.27 584.431C1696.73 587.239 1695.14 590.031 1693.51 592.806C1695.86 590.77 1698.19 588.686 1700.5 586.556C1702.25 583.897 1703.96 581.22 1705.62 578.526C1703.19 580.544 1700.74 582.513 1698.27 584.431ZM1707.99 576.54C1706.53 578.952 1705.04 581.351 1703.51 583.735C1705.51 581.839 1707.49 579.906 1709.46 577.938C1711.09 575.661 1712.7 573.368 1714.26 571.061C1712.19 572.925 1710.1 574.751 1707.99 576.54ZM1701.23 587.249C1702.74 585.85 1704.25 584.43 1705.74 582.991C1704.5 584.649 1703.24 586.299 1701.95 587.939C1700.55 589.465 1699.14 590.972 1697.71 592.459C1698.91 590.731 1700.08 588.994 1701.23 587.249ZM1698.17 590.031C1696.1 591.895 1694.01 593.721 1691.9 595.51C1690.44 597.922 1688.95 600.321 1687.42 602.706C1689.42 600.809 1691.4 598.877 1693.37 596.908C1695.01 594.631 1696.61 592.338 1698.17 590.031ZM1411.12 609.46C1338.14 540.029 1332.89 416.365 1392.59 315.005C1390.24 317.041 1387.91 319.124 1385.6 321.255C1317.47 424.568 1319.94 555.616 1395.68 627.667C1471.41 699.718 1594.7 688.317 1684.41 605.526C1686.16 602.867 1687.87 600.19 1689.53 597.496C1600.76 671.194 1484.1 678.89 1411.12 609.46ZM1398.67 305.106C1397.15 307.49 1395.66 309.889 1394.2 312.301C1392.09 314.09 1390 315.916 1387.93 317.78C1389.49 315.473 1391.09 313.18 1392.73 310.903C1394.69 308.935 1396.68 307.002 1398.67 305.106ZM1404.47 296.382C1403.28 298.11 1402.11 299.847 1400.96 301.592C1399.44 302.991 1397.94 304.411 1396.44 305.85C1397.69 304.192 1398.95 302.542 1400.23 300.902C1401.64 299.376 1403.05 297.869 1404.47 296.382ZM1661.86 635.595C1571.3 726.394 1441.63 741.317 1362.85 666.37C1284.07 591.422 1284.22 453.278 1359.78 348.212C1269.43 454.795 1264.13 605.351 1347.41 684.577C1430.69 763.802 1571.46 742.129 1661.86 635.595ZM1682.08 609.001C1680.52 611.309 1678.92 613.602 1677.28 615.879C1586.98 706.424 1457.88 721.118 1379.59 646.637C1301.3 572.156 1301.29 434.634 1376.64 329.872C1378.61 327.904 1380.59 325.971 1382.59 324.075C1316.53 427.163 1319.66 556.721 1395.03 628.43C1470.41 700.138 1592.37 689.576 1682.08 609.001ZM1685.14 606.219C1683.99 607.964 1682.82 609.701 1681.62 611.43C1683.05 609.942 1684.46 608.435 1685.87 606.909C1687.15 605.268 1688.41 603.619 1689.66 601.961C1688.16 603.401 1686.65 604.82 1685.14 606.219ZM1388.39 315.352C1386.96 316.839 1385.55 318.346 1384.14 319.872C1382.86 321.512 1381.6 323.161 1380.36 324.819C1381.85 323.38 1383.36 321.96 1384.87 320.561C1386.02 318.817 1387.19 317.08 1388.39 315.352ZM1669.77 625.881C1671.06 624.24 1672.32 622.59 1673.57 620.932C1583.25 707.879 1456.46 721.146 1378.94 647.4C1301.42 573.653 1300.33 438.721 1372.3 334.321C1370.87 335.808 1369.46 337.314 1368.06 338.84C1285.28 444.694 1282.69 588.731 1363.5 665.607C1444.31 742.482 1579.25 724.356 1669.77 625.881Z" fill="#8BFE90" fill-opacity="0.38"/>
</g>
</svg>
