<svg width="30" height="24" viewBox="0 0 30 24" fill="none" xmlns="http://www.w3.org/2000/svg">
<path d="M14.4 21V2.16C14.4 2.16 11.8195 0 8.16 0C4.50048 0 1.92 1.92 1.92 1.92V21C1.92 21 4.50048 19.1395 8.16 19.1395C11.8195 19.1395 14.4 21 14.4 21ZM27.84 21V2.16C27.84 2.16 25.2595 0 21.6 0C17.9405 0 15.36 1.92 15.36 1.92V21C15.36 21 17.9405 19.1395 21.6 19.1395C25.2595 19.1395 27.84 21 27.84 21ZM29.76 3.84H28.8V22.08H17.28V23.04H12.48V22.08H0.96V3.84H0V23.04H11.52V24H18.2995L18.24 23.04H29.76V3.84Z" fill="#0F1025"/>
</svg>
