<svg width="22" height="24" viewBox="0 0 22 24" fill="none" xmlns="http://www.w3.org/2000/svg">
<path d="M19.053 0C20.457 0 21.5925 1.137 21.66 2.475V24L18.9855 21.7275L17.5155 20.3895L15.9105 18.9945L16.5795 21.1995H2.5395C1.137 21.1995 0 20.1345 0 18.7245V2.478C0 1.143 1.137 0.00299946 2.5425 0.00299946H19.0425L19.053 0ZM12.933 5.682H12.903L12.702 5.883C14.775 6.483 15.777 7.4205 15.777 7.4205C14.442 6.7515 13.236 6.4185 12.033 6.2835C11.163 6.1485 10.293 6.2175 9.558 6.2835H9.36C8.892 6.2835 7.89 6.4845 6.552 7.0185C6.084 7.2195 5.817 7.353 5.817 7.353C5.817 7.353 6.819 6.351 9.027 5.8155L8.892 5.6805C8.892 5.6805 7.2195 5.616 5.415 6.9525C5.415 6.9525 3.6105 10.095 3.6105 13.9725C3.6105 13.9725 4.6125 15.7095 7.353 15.777C7.353 15.777 7.755 15.243 8.1555 14.775C6.618 14.307 6.0165 13.371 6.0165 13.371C6.0165 13.371 6.1515 13.437 6.351 13.5705H6.411C6.441 13.5705 6.456 13.5855 6.471 13.6005V13.608C6.486 13.623 6.501 13.638 6.531 13.638C6.861 13.773 7.191 13.905 7.461 14.0385C7.926 14.2395 8.526 14.4405 9.261 14.574C10.191 14.709 11.256 14.775 12.471 14.574C13.071 14.439 13.671 14.307 14.271 14.0385C14.661 13.839 15.141 13.638 15.666 13.3035C15.666 13.3035 15.066 14.2395 13.461 14.7075C13.791 15.1755 14.256 15.7095 14.256 15.7095C17.001 15.6495 18.066 13.9095 18.126 13.9845C18.126 10.1145 16.311 6.9645 16.311 6.9645C14.676 5.74951 13.146 5.7045 12.876 5.7045L12.933 5.682ZM13.1025 10.095C13.8045 10.095 14.373 10.695 14.373 11.43C14.373 12.1695 13.803 12.768 13.1025 12.768C12.402 12.768 11.8335 12.168 11.8335 11.433C11.8335 10.6935 12.4035 10.095 13.1025 10.095ZM8.5575 10.095C9.258 10.095 9.8265 10.695 9.8265 11.43C9.8265 12.1695 9.2565 12.768 8.5575 12.768C7.8555 12.768 7.287 12.168 7.287 11.433C7.287 10.6935 7.857 10.095 8.5575 10.095Z" fill="white"/>
</svg>
