<svg width="40" height="44" viewBox="0 0 40 44" fill="none" xmlns="http://www.w3.org/2000/svg">
<path d="M35.1856 0C37.7784 0 39.8754 2.0845 40 4.5375V44L35.061 39.8338L32.3463 37.3808L29.3823 34.8233L30.6177 38.8658H4.68975C2.09972 38.8658 0 36.9133 0 34.3283V4.543C0 2.0955 2.09972 0.00549901 4.69529 0.00549901H35.1662L35.1856 0ZM23.8837 10.417H23.8283L23.4571 10.7855C27.2853 11.8855 29.1357 13.6042 29.1357 13.6042C26.6704 12.3777 24.4432 11.7673 22.2216 11.5198C20.615 11.2722 19.0083 11.3987 17.651 11.5198H17.2853C16.4211 11.5198 14.5706 11.8883 12.0997 12.8673C11.2355 13.2358 10.7424 13.4805 10.7424 13.4805C10.7424 13.4805 12.5928 11.6435 16.6704 10.6617L16.4211 10.4142C16.4211 10.4142 13.3324 10.296 10 12.7463C10 12.7463 6.66759 18.5075 6.66759 25.6162C6.66759 25.6162 8.518 28.8008 13.5789 28.9245C13.5789 28.9245 14.3213 27.9455 15.0609 27.0875C12.2216 26.2295 11.1108 24.5135 11.1108 24.5135C11.1108 24.5135 11.3601 24.6345 11.7285 24.8793H11.8393C11.8947 24.8793 11.9224 24.9068 11.9501 24.9343V24.948C11.9778 24.9755 12.0055 25.003 12.0609 25.003C12.6704 25.2505 13.2798 25.4925 13.7784 25.7373C14.6371 26.1058 15.7452 26.4743 17.1025 26.719C18.8199 26.9665 20.7867 27.0875 23.0305 26.719C24.1385 26.4715 25.2465 26.2295 26.3546 25.7373C27.0748 25.3715 27.9612 25.003 28.9307 24.3898C28.9307 24.3898 27.8227 26.1058 24.8587 26.9638C25.4681 27.8218 26.3269 28.8008 26.3269 28.8008C31.3961 28.6908 33.3629 25.5008 33.4737 25.6383C33.4737 18.5433 30.1219 12.7683 30.1219 12.7683C27.1025 10.5408 24.277 10.4583 23.7784 10.4583L23.8837 10.417ZM24.1967 18.5075C25.4931 18.5075 26.5429 19.6075 26.5429 20.955C26.5429 22.3108 25.4903 23.408 24.1967 23.408C22.9031 23.408 21.8532 22.308 21.8532 20.9605C21.8532 19.6048 22.9058 18.5075 24.1967 18.5075ZM15.8033 18.5075C17.097 18.5075 18.1468 19.6075 18.1468 20.955C18.1468 22.3108 17.0942 23.408 15.8033 23.408C14.5069 23.408 13.4571 22.308 13.4571 20.9605C13.4571 19.6048 14.5097 18.5075 15.8033 18.5075Z" fill="#0F1025"/>
</svg>
