<svg width="200" height="566" viewBox="0 0 200 566" fill="none" xmlns="http://www.w3.org/2000/svg">
<path fill-rule="evenodd" clip-rule="evenodd" d="M0.233085 94.9876C-97.5234 4.58532 -234.912 -7.29994 -311.506 69.2936C-388.1 145.888 -376.213 283.28 -285.807 381.037C-284.338 382.396 -282.859 383.737 -281.372 385.061C-360.659 288.288 -368.212 159.519 -294.746 86.0532C-221.28 12.5875 -92.5126 20.1406 4.26028 99.4265C2.93568 97.9381 1.59326 96.4583 0.233085 94.9876ZM8.45374 104.237C-88.5555 21.3976 -219.831 12.5522 -294.039 86.7603C-368.247 160.969 -359.402 292.245 -276.561 389.254C-274.483 391.029 -272.389 392.77 -270.28 394.476C-343.546 298.717 -348.726 174.966 -277.279 103.52C-205.833 32.0733 -82.0836 37.253 13.6757 110.517C11.9691 108.409 10.2284 106.315 8.45374 104.237ZM13.2639 108.43C14.539 109.986 15.7955 111.551 17.0334 113.123C18.6061 114.361 20.1709 115.618 21.7275 116.893C20.4036 115.406 19.062 113.927 17.7026 112.457C16.2319 111.097 14.7522 109.755 13.2639 108.43ZM16.3225 113.834C-79.5911 38.3754 -204.785 32.4389 -276.572 104.227C-348.361 176.015 -342.424 301.209 -266.964 397.123C-264.519 399.046 -262.055 400.925 -259.574 402.757C-326.331 308.393 -328.995 190.169 -259.813 120.986C-190.631 51.804 -72.407 54.4684 21.9576 121.225C20.1245 118.743 18.2461 116.279 16.3225 113.834ZM24.5471 123.077C22.9467 120.865 21.3108 118.666 19.6395 116.481C21.7484 118.188 23.8426 119.929 25.921 121.704C27.6958 123.782 29.4366 125.876 31.1433 127.985C28.9588 126.314 26.7598 124.678 24.5471 123.077ZM23.8328 123.792C-70.6389 55.5265 -189.777 52.3647 -259.106 121.693C-328.435 191.022 -325.273 310.161 -257.007 404.633C-254.29 406.596 -251.553 408.505 -248.797 410.361C-308.963 317.749 -309.139 205.245 -242.346 138.453C-175.554 71.6606 -63.051 71.8365 29.561 132.002C27.7055 129.246 25.7961 126.509 23.8328 123.792ZM31.6916 133.399C29.9748 130.805 28.2107 128.227 26.3994 125.667C28.8811 127.5 31.3451 129.378 33.7901 131.302C35.7135 133.747 37.5917 136.21 39.4246 138.692C36.864 136.88 34.2859 135.116 31.6916 133.399ZM30.9725 134.118C-61.7113 72.8591 -174.814 72.3344 -241.639 139.16C-308.465 205.985 -307.94 319.088 -246.681 411.772C-243.736 413.719 -240.771 415.604 -237.787 417.427C-291.417 326.92 -289.191 220.231 -224.88 155.919C-160.569 91.6085 -53.8797 89.3825 36.6277 143.012C34.8041 140.028 32.919 137.063 30.9725 134.118ZM38.4541 144.104C36.7222 141.228 34.9336 138.37 33.0886 135.53C35.8449 137.385 38.5825 139.295 41.2997 141.258C43.263 143.975 45.1726 146.713 47.0281 149.469C44.1882 147.624 41.3295 145.836 38.4541 144.104ZM37.7288 144.829C-52.8207 90.3841 -159.901 92.3547 -224.173 156.627C-288.445 220.899 -290.415 327.979 -235.97 418.528C-232.82 420.422 -229.65 422.248 -226.462 424.006C-273.674 335.955 -269.163 235.135 -207.413 173.386C-145.664 111.636 -44.8451 107.125 43.2059 154.337C41.4486 151.149 39.6228 147.979 37.7288 144.829ZM44.817 155.207C43.1244 152.098 41.367 149.005 39.5453 145.93C42.5293 147.754 45.4948 149.639 48.4397 151.585C50.386 154.53 52.2709 157.495 54.0944 160.479C51.0198 158.657 47.9266 156.9 44.817 155.207ZM44.0835 155.941C-43.9824 108.113 -145.045 112.432 -206.706 174.093C-268.368 235.754 -272.686 336.817 -224.858 424.883C-136.793 472.71 -35.73 468.392 25.9313 406.731C87.5927 345.069 91.9109 244.007 44.0835 155.941ZM-223.981 426.487C-135.93 473.699 -35.111 469.187 26.6384 407.438C88.3879 345.688 92.8995 244.869 45.6873 156.818C48.8751 158.575 52.0453 160.401 55.1956 162.296C109.64 252.845 107.67 359.925 43.3978 424.197C-20.8742 488.469 -127.954 490.439 -218.504 435.994C-220.398 432.844 -222.224 429.674 -223.981 426.487ZM-225.592 425.617C-228.701 423.924 -231.795 422.167 -234.869 420.345C-233.046 423.328 -231.161 426.294 -229.215 429.238C-226.27 431.185 -223.304 433.07 -220.32 434.893C-222.142 431.819 -223.899 428.726 -225.592 425.617ZM-236.696 419.254C-239.571 417.522 -242.429 415.733 -245.269 413.889C-243.414 416.644 -241.504 419.382 -239.541 422.098C-236.824 424.062 -234.087 425.971 -231.331 427.827C-233.176 424.987 -234.964 422.129 -236.696 419.254ZM-247.4 412.491C-249.994 410.775 -252.572 409.011 -255.132 407.199C-253.299 409.68 -251.421 412.144 -249.498 414.588C-247.053 416.512 -244.589 418.39 -242.108 420.223C-243.919 417.663 -245.683 415.085 -247.4 412.491ZM-257.722 405.347C-259.934 403.747 -262.133 402.111 -264.317 400.44C-262.61 402.549 -260.87 404.642 -259.096 406.72C-257.017 408.495 -254.924 410.235 -252.815 411.942C-254.486 409.758 -256.122 407.559 -257.722 405.347ZM-267.674 397.834C-269.247 396.596 -270.812 395.34 -272.368 394.065C-271.044 395.552 -269.703 397.03 -268.344 398.5C-266.873 399.86 -265.394 401.202 -263.906 402.527C-265.18 400.971 -266.437 399.406 -267.674 397.834ZM-295.02 372.164C-377.866 274.91 -386.841 143.215 -312.213 68.5865C-237.585 -6.04094 -105.893 2.93309 -8.63991 85.7747C-106.784 -12.0977 -250.106 -27.0385 -328.972 51.8274C-407.839 130.694 -392.897 274.02 -295.02 372.164ZM0.940516 94.2801C-1.83949 91.2746 -4.69331 88.3067 -7.62066 85.3793C-106.015 -13.015 -250.205 -28.3533 -329.679 51.1203C-409.153 130.594 -393.814 274.784 -295.42 373.179C-292.491 376.108 -289.522 378.963 -286.515 381.744C-283.735 384.75 -280.881 387.718 -277.954 390.645C-275.026 393.573 -272.057 396.427 -269.051 399.208C-266.27 402.214 -263.415 405.183 -260.487 408.112C-257.559 411.04 -254.59 413.895 -251.583 416.676C-248.803 419.682 -245.948 422.65 -243.02 425.578C-240.093 428.506 -237.125 431.36 -234.119 434.14C-231.338 437.147 -228.483 440.116 -225.554 443.045C-222.626 445.973 -219.657 448.828 -216.65 451.609C-213.87 454.615 -211.015 457.583 -208.087 460.511C-205.16 463.439 -202.191 466.293 -199.185 469.074C-196.404 472.08 -193.549 475.049 -190.621 477.978C-187.692 480.906 -184.724 483.761 -181.717 486.542C-178.936 489.548 -176.082 492.517 -173.154 495.444C-74.7599 593.839 69.4306 609.177 148.904 529.703C228.378 450.23 213.04 306.039 114.645 207.645C111.717 204.717 108.748 201.862 105.741 199.081C102.961 196.075 100.107 193.106 97.1786 190.178C94.2507 187.251 91.2823 184.396 88.2763 181.616C85.4953 178.609 82.6404 175.64 79.712 172.712C76.7837 169.783 73.8148 166.929 70.8083 164.148C68.0278 161.142 65.1734 158.173 62.2455 155.245C59.3178 152.318 56.3496 149.464 53.3438 146.683C50.5626 143.676 47.7076 140.707 44.779 137.779C41.8506 134.85 38.8816 131.995 35.875 129.214C33.0946 126.208 30.2403 123.24 27.3124 120.312C24.3846 117.384 21.4162 114.53 18.4101 111.75C15.6291 108.743 12.7743 105.774 9.84584 102.845C6.917 99.9166 3.9476 97.0614 0.940516 94.2801ZM105.034 199.789C103.564 198.429 102.085 197.087 100.597 195.763C179.884 292.536 187.437 421.304 113.971 494.77C40.5052 568.236 -88.263 560.683 -185.036 481.396C-183.712 482.885 -182.369 484.364 -181.009 485.835C-83.2529 576.238 54.1367 588.124 130.731 511.53C207.325 434.936 195.439 297.545 105.034 199.789ZM113.264 494.063C187.472 419.855 178.627 288.579 95.7872 191.57C93.7089 189.795 91.615 188.055 89.5062 186.348C162.771 282.107 167.951 405.857 96.5046 477.304C25.0582 548.75 -98.6919 543.57 -194.451 470.306C-192.745 472.414 -191.004 474.508 -189.229 476.586C-92.2201 559.426 39.0557 568.271 113.264 494.063ZM-197.098 466.989C-101.184 542.448 24.0095 548.385 95.7975 476.597C167.585 404.809 161.649 279.615 86.1892 183.701C83.7446 181.778 81.2809 179.9 78.7995 178.067C145.556 272.431 148.22 390.655 79.0381 459.837C9.85558 529.02 -108.368 526.355 -202.733 459.598C-200.9 462.08 -199.022 464.544 -197.098 466.989ZM78.331 459.13C147.66 389.801 144.498 270.663 76.2329 176.192C73.5158 174.228 70.7782 172.319 68.0221 170.463C128.188 263.075 128.364 375.579 61.5715 442.371C-5.22074 509.163 -117.724 508.987 -210.336 448.821C-208.481 451.577 -206.571 454.315 -204.608 457.032C-110.136 525.297 9.00209 528.459 78.331 459.13ZM-211.748 446.705C-119.064 507.964 -5.96106 508.489 60.8644 441.664C127.69 374.838 127.165 261.735 65.906 169.051C62.9613 167.105 59.9959 165.22 57.012 163.397C110.642 253.904 108.416 360.593 44.1049 424.904C-20.2061 489.215 -126.895 491.441 -217.403 437.811C-215.579 440.795 -213.694 443.76 -211.748 446.705ZM64.4944 166.935C61.6546 165.09 58.7961 163.302 55.9209 161.57C54.189 158.695 52.4006 155.836 50.5557 152.997C53.3118 154.852 56.0493 156.762 58.7663 158.725C60.7296 161.442 62.639 164.179 64.4944 166.935ZM56.8911 156.158C54.3307 154.347 51.7528 152.583 49.1587 150.866C47.4418 148.272 45.6777 145.694 43.8663 143.133C46.3477 144.966 48.8115 146.845 51.2563 148.768C53.1798 151.213 55.0581 153.677 56.8911 156.158ZM48.6095 145.451C46.4252 143.78 44.2264 142.144 42.014 140.544C40.4138 138.332 38.7781 136.133 37.107 133.949C39.2157 135.655 41.3096 137.396 43.3878 139.171C45.1624 141.249 46.9029 143.342 48.6095 145.451ZM39.1943 134.36C37.6381 133.085 36.0735 131.829 34.501 130.591C33.263 129.018 32.0063 127.454 30.7311 125.897C32.2187 127.221 33.6976 128.563 35.1676 129.922C36.5276 131.393 37.8699 132.872 39.1943 134.36ZM-250.875 415.968C-252.235 414.498 -253.578 413.018 -254.902 411.53C-253.346 412.805 -251.781 414.062 -250.209 415.299C-248.971 416.872 -247.714 418.437 -246.439 419.993C-247.927 418.669 -249.406 417.328 -250.875 415.968ZM-241.629 424.187C-243.404 422.108 -245.145 420.014 -246.851 417.905C-244.667 419.577 -242.468 421.212 -240.256 422.813C-238.655 425.025 -237.019 427.224 -235.348 429.409C-237.457 427.702 -239.551 425.961 -241.629 424.187ZM-232.031 432.055C-233.955 429.611 -235.833 427.147 -237.666 424.665C-235.106 426.476 -232.528 428.24 -229.934 429.957C-228.217 432.551 -226.453 435.129 -224.641 437.69C-227.123 435.857 -229.587 433.979 -232.031 432.055ZM-222.075 439.565C-224.038 436.848 -225.948 434.11 -227.803 431.354C-224.963 433.199 -222.105 434.988 -219.229 436.72C-217.497 439.595 -215.709 442.454 -213.864 445.294C-216.62 443.438 -219.358 441.529 -222.075 439.565ZM66.625 168.332C69.2192 170.049 71.7972 171.813 74.3577 173.625C72.5249 171.144 70.6467 168.68 68.7234 166.235C66.2784 164.312 63.8145 162.433 61.3329 160.6C63.1442 163.161 64.9083 165.738 66.625 168.332ZM59.4806 158.011C61.6932 159.611 63.8922 161.247 66.0766 162.918C64.3699 160.809 62.6291 158.715 60.8544 156.637C58.7761 154.862 56.682 153.122 54.5731 151.415C56.2444 153.599 57.8803 155.798 59.4806 158.011ZM51.9672 148.057C53.5398 149.295 55.1046 150.552 56.661 151.827C55.3372 150.339 53.9956 148.861 52.6363 147.391C51.1657 146.031 49.6861 144.688 48.1979 143.364C49.4729 144.92 50.7293 146.485 51.9672 148.057ZM-237.436 428.997C-236.112 430.484 -234.77 431.963 -233.411 433.433C-231.941 434.793 -230.461 436.135 -228.973 437.459C-230.248 435.903 -231.504 434.339 -232.742 432.766C-234.315 431.528 -235.879 430.272 -237.436 428.997ZM-229.384 435.372C-227.678 437.481 -225.937 439.575 -224.163 441.653C-222.085 443.427 -219.991 445.168 -217.882 446.875C-219.553 444.69 -221.189 442.492 -222.789 440.279C-225.001 438.679 -227.2 437.044 -229.384 435.372ZM-220.2 442.132C-218.367 444.613 -216.489 447.077 -214.565 449.521C-212.12 451.445 -209.656 453.323 -207.175 455.156C-208.986 452.596 -210.75 450.018 -212.467 447.424C-215.061 445.707 -217.639 443.943 -220.2 442.132ZM83.5425 180.384C81.3583 178.713 79.1595 177.077 76.9472 175.477C75.347 173.265 73.7114 171.066 72.0403 168.882C74.1489 170.588 76.2427 172.329 78.3207 174.104C80.0953 176.182 81.8359 178.275 83.5425 180.384ZM74.1273 169.293C72.5711 168.018 71.0066 166.762 69.4343 165.524C68.1963 163.952 66.9397 162.387 65.6645 160.831C67.1521 162.154 68.6309 163.496 70.1009 164.855C71.4608 166.326 72.8029 167.805 74.1273 169.293ZM-215.943 450.901C-217.303 449.431 -218.645 447.951 -219.969 446.463C-218.413 447.738 -216.849 448.994 -215.276 450.232C-214.038 451.805 -212.781 453.37 -211.506 454.926C-212.994 453.602 -214.473 452.261 -215.943 450.901ZM-206.696 459.12C-208.471 457.041 -210.212 454.947 -211.918 452.838C-209.734 454.51 -207.535 456.145 -205.322 457.746C-203.722 459.958 -202.086 462.157 -200.415 464.342C-202.524 462.635 -204.618 460.894 -206.696 459.12ZM86.9002 182.99C88.4728 184.228 90.0374 185.485 91.5938 186.76C90.2699 185.272 88.9282 183.793 87.5688 182.323C86.0983 180.963 84.6189 179.621 83.1308 178.297C84.4059 179.853 85.6623 181.418 86.9002 182.99ZM-202.503 463.93C-201.179 465.417 -199.837 466.896 -198.478 468.366C-197.007 469.726 -195.528 471.068 -194.04 472.393C-195.315 470.837 -196.571 469.272 -197.809 467.7C-199.382 466.462 -200.946 465.205 -202.503 463.93ZM114.247 208.661C197.091 305.915 206.066 437.609 131.438 512.237C56.8098 586.865 -74.8834 577.89 -172.137 495.047C-73.9923 592.921 69.3308 607.863 148.197 528.996C227.064 450.13 212.122 306.806 114.247 208.661Z" fill="#8BFE90" fill-opacity="0.25"/>
</svg>
