<svg width="24" height="18" viewBox="0 0 24 18" fill="none" xmlns="http://www.w3.org/2000/svg">
<path d="M23.1111 15.1111H12.2258C12.5449 14.5609 12.7893 13.9644 12.9511 13.3333H23.1111C23.6027 13.3333 24 13.7307 24 14.2222C24 14.7129 23.6027 15.1111 23.1111 15.1111ZM23.1111 12.4444H13.1236C13.16 12.1529 13.1849 11.8569 13.1849 11.5556C13.1849 11.2533 13.16 10.9582 13.1236 10.6667H23.1111C23.6027 10.6667 24 11.064 24 11.5556C24 12.0462 23.6027 12.4444 23.1111 12.4444ZM23.1111 9.77778H12.9511C12.7884 9.14667 12.5449 8.55022 12.2258 8H23.1111C23.6027 8 24 8.39733 24 8.88889C24 9.37955 23.6027 9.77778 23.1111 9.77778ZM23.1111 7.11111H11.6196C11.0418 6.39022 10.328 5.784 9.51378 5.33333H23.1111C23.6027 5.33333 24 5.73067 24 6.22222C24 6.71289 23.6027 7.11111 23.1111 7.11111ZM23.1111 4.44444H8.88889C8.39733 4.44444 8 4.04622 8 3.55556C8 3.064 8.39733 2.66667 8.88889 2.66667H23.1111C23.6027 2.66667 24 3.064 24 3.55556C24 4.04622 23.6027 4.44444 23.1111 4.44444ZM23.1111 1.77778H8.88889C8.39733 1.77778 8 1.37956 8 0.888887C8 0.397332 8.39733 0 8.88889 0H23.1111C23.6027 0 24 0.397332 24 0.888887C24 1.37956 23.6027 1.77778 23.1111 1.77778ZM12.4444 11.5556C12.4444 14.992 9.65778 17.7778 6.22222 17.7778C2.78578 17.7778 0 14.992 0 11.5556C0 8.11911 2.78578 5.33333 6.22222 5.33333C9.65778 5.33333 12.4444 8.11911 12.4444 11.5556ZM8.42489 12.232C8.33511 12.0196 8.21955 11.8347 8.07467 11.6773C7.92978 11.52 7.76533 11.3849 7.58044 11.272C7.39555 11.1591 7.20711 11.0587 7.01422 10.9689C6.82133 10.88 6.63289 10.7964 6.448 10.7164C6.26311 10.6373 6.09689 10.552 5.95111 10.4613C5.80444 10.3707 5.688 10.2667 5.60089 10.1502C5.51378 10.0338 5.47022 9.896 5.47022 9.736C5.47022 9.62933 5.48978 9.528 5.528 9.432C5.56711 9.33689 5.62578 9.25422 5.70578 9.18578C5.78489 9.11822 5.88444 9.064 6.00266 9.02578C6.12089 8.98666 6.26044 8.968 6.41955 8.968C6.62311 8.968 6.80977 8.992 6.98044 9.04178C7.15022 9.09244 7.30044 9.14667 7.43022 9.208C7.56 9.26844 7.66933 9.32444 7.75822 9.376C7.84711 9.42755 7.912 9.45244 7.95289 9.45244C7.99377 9.45244 8.02577 9.44178 8.04977 9.41955C8.07288 9.39733 8.09244 9.36267 8.10489 9.31378C8.11822 9.26578 8.12622 9.20444 8.13244 9.13067C8.13777 9.056 8.14044 8.96444 8.14044 8.85689C8.14044 8.76089 8.13866 8.68 8.13511 8.616C8.13155 8.55111 8.12444 8.49689 8.11644 8.45422C8.10666 8.41155 8.096 8.37689 8.08355 8.35111C8.06933 8.32533 8.04533 8.29422 8.008 8.25778C7.97066 8.22044 7.89511 8.17422 7.78044 8.12C7.66578 8.06489 7.53422 8.01511 7.38666 7.97156C7.23822 7.92711 7.07911 7.89244 6.90933 7.86667C6.87467 7.86133 6.83911 7.86311 6.80444 7.85866V6.93955H5.92978V7.85866C5.76889 7.88 5.61333 7.912 5.46222 7.95555C5.168 8.04089 4.91289 8.16889 4.696 8.34133C4.47911 8.51378 4.30666 8.73067 4.17955 8.99022C4.05155 9.25155 3.98844 9.55378 3.98844 9.89778C3.98844 10.1973 4.03289 10.4551 4.12089 10.6693C4.20978 10.8836 4.32533 11.0702 4.46844 11.2276C4.61155 11.3849 4.77244 11.5191 4.95378 11.632C5.13511 11.7458 5.32267 11.8462 5.51467 11.9351C5.70755 12.024 5.89422 12.1076 6.07555 12.1876C6.25688 12.2676 6.41866 12.3529 6.56089 12.4427C6.704 12.5342 6.81955 12.6373 6.90844 12.7538C6.99733 12.8711 7.04177 13.0107 7.04177 13.1733C7.04177 13.3147 7.016 13.4427 6.96444 13.5582C6.912 13.6729 6.83733 13.7689 6.73955 13.8471C6.64177 13.9253 6.52266 13.9849 6.38222 14.0276C6.24088 14.0702 6.08266 14.0916 5.904 14.0916C5.63377 14.0916 5.39555 14.0613 5.19022 14C4.98488 13.9387 4.808 13.8711 4.65955 13.7964C4.51111 13.7227 4.39022 13.656 4.296 13.5938C4.20177 13.5333 4.12888 13.5022 4.07644 13.5022C4.03911 13.5022 4.00622 13.5129 3.97955 13.5324C3.95111 13.5529 3.92888 13.5876 3.91288 13.6356C3.896 13.6844 3.88444 13.7467 3.87644 13.8249C3.86844 13.9031 3.86488 13.9991 3.86488 14.1138C3.86488 14.2844 3.87555 14.4151 3.89511 14.5058C3.91555 14.5973 3.95022 14.6667 3.99822 14.7138C4.04622 14.7618 4.12444 14.816 4.23377 14.8791C4.34311 14.9422 4.47911 15.0009 4.64177 15.0578C4.80444 15.1138 4.99288 15.1627 5.20533 15.2036C5.41777 15.2436 5.64888 15.2631 5.89688 15.2631C5.90755 15.2631 5.91733 15.2613 5.92888 15.2613V16.1173H6.80266V15.1467C6.84444 15.136 6.88889 15.1307 6.92977 15.1191C7.25155 15.0231 7.53333 14.8791 7.77422 14.6889C8.01511 14.4987 8.20533 14.2613 8.34666 13.976C8.48711 13.6907 8.55644 13.36 8.55644 12.9822C8.55733 12.6951 8.51288 12.4453 8.42488 12.232H8.42489ZM11.6196 16H23.1111C23.6027 16 24 16.3973 24 16.8889C24 17.3796 23.6027 17.7778 23.1111 17.7778H9.51378C10.328 17.3271 11.0418 16.7209 11.6196 16Z" fill="#0F1025"/>
</svg>
