<svg width="515" height="515" viewBox="0 0 515 515" fill="none" xmlns="http://www.w3.org/2000/svg">
<mask id="mask0_319_426" style="mask-type:alpha" maskUnits="userSpaceOnUse" x="0" y="0" width="515" height="515">
<rect width="515" height="515" rx="257.5" fill="#002851"/>
</mask>
<g mask="url(#mask0_319_426)">
<path fill-rule="evenodd" clip-rule="evenodd" d="M30.0065 -87.104H0.756836V-56.7058H30.0065V-87.104ZM31.0065 -87.104H60.2561V-56.7058H31.0065V-87.104ZM90.5056 -87.104H61.2561V-56.7058H90.5056V-87.104ZM91.5056 -87.104H120.755V-56.7058H91.5056V-87.104ZM151.005 -87.104H121.755V-56.7058H151.005V-87.104ZM152.005 -87.104H181.254V-56.7058H152.005V-87.104ZM211.504 -87.104H182.254V-56.7058H211.504V-87.104ZM212.504 -87.104H241.754V-56.7058H212.504V-87.104ZM272.003 -87.104H242.754V-56.7058H272.003V-87.104ZM273.003 -87.104H302.253V-56.7058H273.003V-87.104ZM332.503 -87.104H303.253V-56.7058H332.503V-87.104ZM333.503 -87.104H362.752V-56.7058H333.503V-87.104ZM393.002 -87.104H363.752V-56.7058H393.002V-87.104ZM394.002 -87.104H423.252V-56.7058H394.002V-87.104ZM453.501 -87.104H424.252V-56.7058H453.501V-87.104ZM454.501 -87.104H483.751V-56.7058H454.501V-87.104ZM514 -87.104H484.751V-56.7058H514V-87.104ZM515 -87.104V-56.7058V-55.7058V-25.3069V-24.3069V6.09132V7.09132V37.4893V38.4893V68.8878V69.8878V100.286V101.286V131.684V132.684V163.083V164.083V194.482V195.482V225.88V226.88V257.278V258.278V288.676V289.676V320.075V321.075V351.474V352.474V382.872V383.872V414.27V415.27V445.669V446.669V477.067V478.067V508.465V509.465V539.864V540.864V571.262V572.262V602.66V603.66H514H484.751H483.751H454.501H453.501H424.252H423.252H394.002H393.002H363.752H362.752H333.503H332.503H303.253H302.253H273.003H272.003H242.754H241.754H212.504H211.504H182.254H181.254H152.005H151.005H121.755H120.755H91.5056H90.5056H61.2561H60.2561H31.0065H30.0065H0.756836H-0.243164V-87.889H0.756836V-88.104H515V-87.104ZM514 602.66V572.262H484.751V602.66H514ZM514 571.262V540.864H484.751V571.262H514ZM514 539.864V509.465H484.751V539.864H514ZM514 508.465V478.067H484.751V508.465H514ZM514 477.067V446.669H484.751V477.067H514ZM514 445.669V415.27H484.751V445.669H514ZM514 414.27V383.872H484.751V414.27H514ZM514 382.872V352.474H484.751V382.872H514ZM514 351.474V321.075H484.751V351.474H514ZM514 320.075V289.676H484.751V320.075H514ZM514 288.676V258.278H484.751V288.676H514ZM514 257.278V226.88H484.751V257.278H514ZM514 225.88V195.482H484.751V225.88H514ZM514 194.482V164.083H484.751V194.482H514ZM514 163.083V132.684H484.751V163.083H514ZM514 131.684V101.286H484.751V131.684H514ZM514 100.286V69.8878H484.751V100.286H514ZM514 68.8878V38.4893H484.751V68.8878H514ZM514 37.4893V7.09132H484.751V37.4893H514ZM514 6.09132V-24.3069H484.751V6.09132H514ZM514 -25.3069V-55.7058H484.751V-25.3069H514ZM454.501 -55.7058H483.751V-25.3069H454.501V-55.7058ZM454.501 -24.3069H483.751V6.09132H454.501V-24.3069ZM454.501 7.09132H483.751V37.4893H454.501V7.09132ZM454.501 38.4893H483.751V68.8878H454.501V38.4893ZM454.501 69.8878H483.751V100.286H454.501V69.8878ZM454.501 101.286H483.751V131.684H454.501V101.286ZM454.501 132.684H483.751V163.083H454.501V132.684ZM454.501 164.083H483.751V194.482H454.501V164.083ZM454.501 195.482H483.751V225.88H454.501V195.482ZM454.501 226.88H483.751V257.278H454.501V226.88ZM454.501 258.278H483.751V288.676H454.501V258.278ZM454.501 289.676H483.751V320.075H454.501V289.676ZM454.501 321.075H483.751V351.474H454.501V321.075ZM454.501 352.474H483.751V382.872H454.501V352.474ZM454.501 383.872H483.751V414.27H454.501V383.872ZM454.501 415.27H483.751V445.669H454.501V415.27ZM454.501 446.669H483.751V477.067H454.501V446.669ZM454.501 478.067H483.751V508.465H454.501V478.067ZM454.501 509.465H483.751V539.864H454.501V509.465ZM454.501 540.864H483.751V571.262H454.501V540.864ZM454.501 572.262H483.751V602.66H454.501V572.262ZM453.501 -55.7058H424.252V-25.3069H453.501V-55.7058ZM453.501 -24.3069H424.252V6.09132H453.501V-24.3069ZM453.501 7.09132H424.252V37.4893H453.501V7.09132ZM453.501 38.4893H424.252V68.8878H453.501V38.4893ZM453.501 69.8878H424.252V100.286H453.501V69.8878ZM453.501 101.286H424.252V131.684H453.501V101.286ZM453.501 132.684H424.252V163.083H453.501V132.684ZM453.501 164.083H424.252V194.482H453.501V164.083ZM453.501 195.482H424.252V225.88H453.501V195.482ZM453.501 226.88H424.252V257.278H453.501V226.88ZM453.501 258.278H424.252V288.676H453.501V258.278ZM453.501 289.676H424.252V320.075H453.501V289.676ZM453.501 321.075H424.252V351.474H453.501V321.075ZM453.501 352.474H424.252V382.872H453.501V352.474ZM453.501 383.872H424.252V414.27H453.501V383.872ZM453.501 415.27H424.252V445.669H453.501V415.27ZM453.501 446.669H424.252V477.067H453.501V446.669ZM453.501 478.067H424.252V508.465H453.501V478.067ZM453.501 509.465H424.252V539.864H453.501V509.465ZM453.501 540.864H424.252V571.262H453.501V540.864ZM453.501 572.262H424.252V602.66H453.501V572.262ZM394.002 -55.7058H423.252V-25.3069H394.002V-55.7058ZM394.002 -24.3069H423.252V6.09132H394.002V-24.3069ZM394.002 7.09132H423.252V37.4893H394.002V7.09132ZM394.002 38.4893H423.252V68.8878H394.002V38.4893ZM394.002 69.8878H423.252V100.286H394.002V69.8878ZM394.002 101.286H423.252V131.684H394.002V101.286ZM394.002 132.684H423.252V163.083H394.002V132.684ZM394.002 164.083H423.252V194.482H394.002V164.083ZM394.002 195.482H423.252V225.88H394.002V195.482ZM394.002 226.88H423.252V257.278H394.002V226.88ZM394.002 258.278H423.252V288.676H394.002V258.278ZM394.002 289.676H423.252V320.075H394.002V289.676ZM394.002 321.075H423.252V351.474H394.002V321.075ZM394.002 352.474H423.252V382.872H394.002V352.474ZM394.002 383.872H423.252V414.27H394.002V383.872ZM394.002 415.27H423.252V445.669H394.002V415.27ZM394.002 446.669H423.252V477.067H394.002V446.669ZM394.002 478.067H423.252V508.465H394.002V478.067ZM394.002 509.465H423.252V539.864H394.002V509.465ZM394.002 540.864H423.252V571.262H394.002V540.864ZM394.002 572.262H423.252V602.66H394.002V572.262ZM393.002 -55.7058H363.752V-25.3069H393.002V-55.7058ZM393.002 -24.3069H363.752V6.09132H393.002V-24.3069ZM393.002 7.09132H363.752V37.4893H393.002V7.09132ZM393.002 38.4893H363.752V68.8878H393.002V38.4893ZM393.002 69.8878H363.752V100.286H393.002V69.8878ZM393.002 101.286H363.752V131.684H393.002V101.286ZM393.002 132.684H363.752V163.083H393.002V132.684ZM393.002 164.083H363.752V194.482H393.002V164.083ZM393.002 195.482H363.752V225.88H393.002V195.482ZM393.002 226.88H363.752V257.278H393.002V226.88ZM393.002 258.278H363.752V288.676H393.002V258.278ZM393.002 289.676H363.752V320.075H393.002V289.676ZM393.002 321.075H363.752V351.474H393.002V321.075ZM393.002 352.474H363.752V382.872H393.002V352.474ZM393.002 383.872H363.752V414.27H393.002V383.872ZM393.002 415.27H363.752V445.669H393.002V415.27ZM393.002 446.669H363.752V477.067H393.002V446.669ZM393.002 478.067H363.752V508.465H393.002V478.067ZM393.002 509.465H363.752V539.864H393.002V509.465ZM393.002 540.864H363.752V571.262H393.002V540.864ZM393.002 572.262H363.752V602.66H393.002V572.262ZM333.503 -55.7058H362.752V-25.3069H333.503V-55.7058ZM333.503 -24.3069H362.752V6.09132H333.503V-24.3069ZM333.503 7.09132H362.752V37.4893H333.503V7.09132ZM333.503 38.4893H362.752V68.8878H333.503V38.4893ZM333.503 69.8878H362.752V100.286H333.503V69.8878ZM333.503 101.286H362.752V131.684H333.503V101.286ZM333.503 132.684H362.752V163.083H333.503V132.684ZM333.503 164.083H362.752V194.482H333.503V164.083ZM333.503 195.482H362.752V225.88H333.503V195.482ZM333.503 226.88H362.752V257.278H333.503V226.88ZM333.503 258.278H362.752V288.676H333.503V258.278ZM333.503 289.676H362.752V320.075H333.503V289.676ZM333.503 321.075H362.752V351.474H333.503V321.075ZM333.503 352.474H362.752V382.872H333.503V352.474ZM333.503 383.872H362.752V414.27H333.503V383.872ZM333.503 415.27H362.752V445.669H333.503V415.27ZM333.503 446.669H362.752V477.067H333.503V446.669ZM333.503 478.067H362.752V508.465H333.503V478.067ZM333.503 509.465H362.752V539.864H333.503V509.465ZM333.503 540.864H362.752V571.262H333.503V540.864ZM333.503 572.262H362.752V602.66H333.503V572.262ZM332.503 -55.7058H303.253V-25.3069H332.503V-55.7058ZM332.503 -24.3069H303.253V6.09132H332.503V-24.3069ZM332.503 7.09132H303.253V37.4893H332.503V7.09132ZM332.503 38.4893H303.253V68.8878H332.503V38.4893ZM332.503 69.8878H303.253V100.286H332.503V69.8878ZM332.503 101.286H303.253V131.684H332.503V101.286ZM332.503 132.684H303.253V163.083H332.503V132.684ZM332.503 164.083H303.253V194.482H332.503V164.083ZM332.503 195.482H303.253V225.88H332.503V195.482ZM332.503 226.88H303.253V257.278H332.503V226.88ZM332.503 258.278H303.253V288.676H332.503V258.278ZM332.503 289.676H303.253V320.075H332.503V289.676ZM332.503 321.075H303.253V351.474H332.503V321.075ZM332.503 352.474H303.253V382.872H332.503V352.474ZM332.503 383.872H303.253V414.27H332.503V383.872ZM332.503 415.27H303.253V445.669H332.503V415.27ZM332.503 446.669H303.253V477.067H332.503V446.669ZM332.503 478.067H303.253V508.465H332.503V478.067ZM332.503 509.465H303.253V539.864H332.503V509.465ZM332.503 540.864H303.253V571.262H332.503V540.864ZM332.503 572.262H303.253V602.66H332.503V572.262ZM273.003 -55.7058H302.253V-25.3069H273.003V-55.7058ZM273.003 -24.3069H302.253V6.09132H273.003V-24.3069ZM273.003 7.09132H302.253V37.4893H273.003V7.09132ZM273.003 38.4893H302.253V68.8878H273.003V38.4893ZM273.003 69.8878H302.253V100.286H273.003V69.8878ZM273.003 101.286H302.253V131.684H273.003V101.286ZM273.003 132.684H302.253V163.083H273.003V132.684ZM273.003 164.083H302.253V194.482H273.003V164.083ZM273.003 195.482H302.253V225.88H273.003V195.482ZM273.003 226.88H302.253V257.278H273.003V226.88ZM273.003 258.278H302.253V288.676H273.003V258.278ZM273.003 289.676H302.253V320.075H273.003V289.676ZM273.003 321.075H302.253V351.474H273.003V321.075ZM273.003 352.474H302.253V382.872H273.003V352.474ZM273.003 383.872H302.253V414.27H273.003V383.872ZM273.003 415.27H302.253V445.669H273.003V415.27ZM273.003 446.669H302.253V477.067H273.003V446.669ZM273.003 478.067H302.253V508.465H273.003V478.067ZM273.003 509.465H302.253V539.864H273.003V509.465ZM273.003 540.864H302.253V571.262H273.003V540.864ZM273.003 572.262H302.253V602.66H273.003V572.262ZM272.003 -55.7058H242.754V-25.3069H272.003V-55.7058ZM272.003 -24.3069H242.754V6.09132H272.003V-24.3069ZM272.003 7.09132H242.754V37.4893H272.003V7.09132ZM272.003 38.4893H242.754V68.8878H272.003V38.4893ZM272.003 69.8878H242.754V100.286H272.003V69.8878ZM272.003 101.286H242.754V131.684H272.003V101.286ZM272.003 132.684H242.754V163.083H272.003V132.684ZM272.003 164.083H242.754V194.482H272.003V164.083ZM272.003 195.482H242.754V225.88H272.003V195.482ZM272.003 226.88H242.754V257.278H272.003V226.88ZM272.003 258.278H242.754V288.676H272.003V258.278ZM272.003 289.676H242.754V320.075H272.003V289.676ZM272.003 321.075H242.754V351.474H272.003V321.075ZM272.003 352.474H242.754V382.872H272.003V352.474ZM272.003 383.872H242.754V414.27H272.003V383.872ZM272.003 415.27H242.754V445.669H272.003V415.27ZM272.003 446.669H242.754V477.067H272.003V446.669ZM272.003 478.067H242.754V508.465H272.003V478.067ZM272.003 509.465H242.754V539.864H272.003V509.465ZM272.003 540.864H242.754V571.262H272.003V540.864ZM272.003 572.262H242.754V602.66H272.003V572.262ZM212.504 -55.7058H241.754V-25.3069H212.504V-55.7058ZM212.504 -24.3069H241.754V6.09132H212.504V-24.3069ZM212.504 7.09132H241.754V37.4893H212.504V7.09132ZM212.504 38.4893H241.754V68.8878H212.504V38.4893ZM212.504 69.8878H241.754V100.286H212.504V69.8878ZM212.504 101.286H241.754V131.684H212.504V101.286ZM212.504 132.684H241.754V163.083H212.504V132.684ZM212.504 164.083H241.754V194.482H212.504V164.083ZM212.504 195.482H241.754V225.88H212.504V195.482ZM212.504 226.88H241.754V257.278H212.504V226.88ZM212.504 258.278H241.754V288.676H212.504V258.278ZM212.504 289.676H241.754V320.075H212.504V289.676ZM212.504 321.075H241.754V351.474H212.504V321.075ZM212.504 352.474H241.754V382.872H212.504V352.474ZM212.504 383.872H241.754V414.27H212.504V383.872ZM212.504 415.27H241.754V445.669H212.504V415.27ZM212.504 446.669H241.754V477.067H212.504V446.669ZM212.504 478.067H241.754V508.465H212.504V478.067ZM212.504 509.465H241.754V539.864H212.504V509.465ZM212.504 540.864H241.754V571.262H212.504V540.864ZM212.504 572.262H241.754V602.66H212.504V572.262ZM211.504 -55.7058H182.254V-25.3069H211.504V-55.7058ZM211.504 -24.3069H182.254V6.09132H211.504V-24.3069ZM211.504 7.09132H182.254V37.4893H211.504V7.09132ZM211.504 38.4893H182.254V68.8878H211.504V38.4893ZM211.504 69.8878H182.254V100.286H211.504V69.8878ZM211.504 101.286H182.254V131.684H211.504V101.286ZM211.504 132.684H182.254V163.083H211.504V132.684ZM211.504 164.083H182.254V194.482H211.504V164.083ZM211.504 195.482H182.254V225.88H211.504V195.482ZM211.504 226.88H182.254V257.278H211.504V226.88ZM211.504 258.278H182.254V288.676H211.504V258.278ZM211.504 289.676H182.254V320.075H211.504V289.676ZM211.504 321.075H182.254V351.474H211.504V321.075ZM211.504 352.474H182.254V382.872H211.504V352.474ZM211.504 383.872H182.254V414.27H211.504V383.872ZM211.504 415.27H182.254V445.669H211.504V415.27ZM211.504 446.669H182.254V477.067H211.504V446.669ZM211.504 478.067H182.254V508.465H211.504V478.067ZM211.504 509.465H182.254V539.864H211.504V509.465ZM211.504 540.864H182.254V571.262H211.504V540.864ZM211.504 572.262H182.254V602.66H211.504V572.262ZM152.005 -55.7058H181.254V-25.3069H152.005V-55.7058ZM152.005 -24.3069H181.254V6.09132H152.005V-24.3069ZM152.005 7.09132H181.254V37.4893H152.005V7.09132ZM152.005 38.4893H181.254V68.8878H152.005V38.4893ZM152.005 69.8878H181.254V100.286H152.005V69.8878ZM152.005 101.286H181.254V131.684H152.005V101.286ZM152.005 132.684H181.254V163.083H152.005V132.684ZM152.005 164.083H181.254V194.482H152.005V164.083ZM152.005 195.482H181.254V225.88H152.005V195.482ZM152.005 226.88H181.254V257.278H152.005V226.88ZM152.005 258.278H181.254V288.676H152.005V258.278ZM152.005 289.676H181.254V320.075H152.005V289.676ZM152.005 321.075H181.254V351.474H152.005V321.075ZM152.005 352.474H181.254V382.872H152.005V352.474ZM152.005 383.872H181.254V414.27H152.005V383.872ZM152.005 415.27H181.254V445.669H152.005V415.27ZM152.005 446.669H181.254V477.067H152.005V446.669ZM152.005 478.067H181.254V508.465H152.005V478.067ZM152.005 509.465H181.254V539.864H152.005V509.465ZM152.005 540.864H181.254V571.262H152.005V540.864ZM152.005 572.262H181.254V602.66H152.005V572.262ZM151.005 -55.7058H121.755V-25.3069H151.005V-55.7058ZM151.005 -24.3069H121.755V6.09132H151.005V-24.3069ZM151.005 7.09132H121.755V37.4893H151.005V7.09132ZM151.005 38.4893H121.755V68.8878H151.005V38.4893ZM151.005 69.8878H121.755V100.286H151.005V69.8878ZM151.005 101.286H121.755V131.684H151.005V101.286ZM151.005 132.684H121.755V163.083H151.005V132.684ZM151.005 164.083H121.755V194.482H151.005V164.083ZM151.005 195.482H121.755V225.88H151.005V195.482ZM151.005 226.88H121.755V257.278H151.005V226.88ZM151.005 258.278H121.755V288.676H151.005V258.278ZM151.005 289.676H121.755V320.075H151.005V289.676ZM151.005 321.075H121.755V351.474H151.005V321.075ZM151.005 352.474H121.755V382.872H151.005V352.474ZM151.005 383.872H121.755V414.27H151.005V383.872ZM151.005 415.27H121.755V445.669H151.005V415.27ZM151.005 446.669H121.755V477.067H151.005V446.669ZM151.005 478.067H121.755V508.465H151.005V478.067ZM151.005 509.465H121.755V539.864H151.005V509.465ZM151.005 540.864H121.755V571.262H151.005V540.864ZM151.005 572.262H121.755V602.66H151.005V572.262ZM91.5056 -55.7058H120.755V-25.3069H91.5056V-55.7058ZM91.5056 -24.3069H120.755V6.09132H91.5056V-24.3069ZM91.5056 7.09132H120.755V37.4893H91.5056V7.09132ZM91.5056 38.4893H120.755V68.8878H91.5056V38.4893ZM91.5056 69.8878H120.755V100.286H91.5056V69.8878ZM91.5056 101.286H120.755V131.684H91.5056V101.286ZM91.5056 132.684H120.755V163.083H91.5056V132.684ZM91.5056 164.083H120.755V194.482H91.5056V164.083ZM91.5056 195.482H120.755V225.88H91.5056V195.482ZM91.5056 226.88H120.755V257.278H91.5056V226.88ZM91.5056 258.278H120.755V288.676H91.5056V258.278ZM91.5056 289.676H120.755V320.075H91.5056V289.676ZM91.5056 321.075H120.755V351.474H91.5056V321.075ZM91.5056 352.474H120.755V382.872H91.5056V352.474ZM91.5056 383.872H120.755V414.27H91.5056V383.872ZM91.5056 415.27H120.755V445.669H91.5056V415.27ZM91.5056 446.669H120.755V477.067H91.5056V446.669ZM91.5056 478.067H120.755V508.465H91.5056V478.067ZM91.5056 509.465H120.755V539.864H91.5056V509.465ZM91.5056 540.864H120.755V571.262H91.5056V540.864ZM91.5056 572.262H120.755V602.66H91.5056V572.262ZM90.5056 -55.7058H61.2561V-25.3069H90.5056V-55.7058ZM90.5056 -24.3069H61.2561V6.09132H90.5056V-24.3069ZM90.5056 7.09132H61.2561V37.4893H90.5056V7.09132ZM90.5056 38.4893H61.2561V68.8878H90.5056V38.4893ZM90.5056 69.8878H61.2561V100.286H90.5056V69.8878ZM90.5056 101.286H61.2561V131.684H90.5056V101.286ZM90.5056 132.684H61.2561V163.083H90.5056V132.684ZM90.5056 164.083H61.2561V194.482H90.5056V164.083ZM90.5056 195.482H61.2561V225.88H90.5056V195.482ZM90.5056 226.88H61.2561V257.278H90.5056V226.88ZM90.5056 258.278H61.2561V288.676H90.5056V258.278ZM90.5056 289.676H61.2561V320.075H90.5056V289.676ZM90.5056 321.075H61.2561V351.474H90.5056V321.075ZM90.5056 352.474H61.2561V382.872H90.5056V352.474ZM90.5056 383.872H61.2561V414.27H90.5056V383.872ZM90.5056 415.27H61.2561V445.669H90.5056V415.27ZM90.5056 446.669H61.2561V477.067H90.5056V446.669ZM90.5056 478.067H61.2561V508.465H90.5056V478.067ZM90.5056 509.465H61.2561V539.864H90.5056V509.465ZM90.5056 540.864H61.2561V571.262H90.5056V540.864ZM90.5056 572.262H61.2561V602.66H90.5056V572.262ZM31.0065 -55.7058H60.2561V-25.3069H31.0065V-55.7058ZM31.0065 -24.3069H60.2561V6.09132H31.0065V-24.3069ZM31.0065 7.09132H60.2561V37.4893H31.0065V7.09132ZM31.0065 38.4893H60.2561V68.8878H31.0065V38.4893ZM31.0065 69.8878H60.2561V100.286H31.0065V69.8878ZM31.0065 101.286H60.2561V131.684H31.0065V101.286ZM31.0065 132.684H60.2561V163.083H31.0065V132.684ZM31.0065 164.083H60.2561V194.482H31.0065V164.083ZM31.0065 195.482H60.2561V225.88H31.0065V195.482ZM31.0065 226.88H60.2561V257.278H31.0065V226.88ZM31.0065 258.278H60.2561V288.676H31.0065V258.278ZM31.0065 289.676H60.2561V320.075H31.0065V289.676ZM31.0065 321.075H60.2561V351.474H31.0065V321.075ZM31.0065 352.474H60.2561V382.872H31.0065V352.474ZM31.0065 383.872H60.2561V414.27H31.0065V383.872ZM31.0065 415.27H60.2561V445.669H31.0065V415.27ZM31.0065 446.669H60.2561V477.067H31.0065V446.669ZM31.0065 478.067H60.2561V508.465H31.0065V478.067ZM31.0065 509.465H60.2561V539.864H31.0065V509.465ZM31.0065 540.864H60.2561V571.262H31.0065V540.864ZM31.0065 572.262H60.2561V602.66H31.0065V572.262ZM30.0065 -55.7058H0.756836V-25.3069H30.0065V-55.7058ZM30.0065 -24.3069H0.756836V6.09132H30.0065V-24.3069ZM30.0065 7.09132H0.756836V37.4893H30.0065V7.09132ZM30.0065 38.4893H0.756836V68.8878H30.0065V38.4893ZM30.0065 69.8878H0.756836V100.286H30.0065V69.8878ZM30.0065 101.286H0.756836V131.684H30.0065V101.286ZM30.0065 132.684H0.756836V163.083H30.0065V132.684ZM30.0065 164.083H0.756836V194.482H30.0065V164.083ZM30.0065 195.482H0.756836V225.88H30.0065V195.482ZM30.0065 226.88H0.756836V257.278H30.0065V226.88ZM30.0065 258.278H0.756836V288.676H30.0065V258.278ZM30.0065 289.676H0.756836V320.075H30.0065V289.676ZM30.0065 321.075H0.756836V351.474H30.0065V321.075ZM30.0065 352.474H0.756836V382.872H30.0065V352.474ZM30.0065 383.872H0.756836V414.27H30.0065V383.872ZM30.0065 415.27H0.756836V445.669H30.0065V415.27ZM30.0065 446.669H0.756836V477.067H30.0065V446.669ZM30.0065 478.067H0.756836V508.465H30.0065V478.067ZM30.0065 509.465H0.756836V539.864H30.0065V509.465ZM30.0065 540.864H0.756836V571.262H30.0065V540.864ZM30.0065 572.262H0.756836V602.66H30.0065V572.262Z" fill="url(#paint0_radial_319_426)" fill-opacity="0.25"/>
</g>
<defs>
<radialGradient id="paint0_radial_319_426" cx="0" cy="0" r="1" gradientUnits="userSpaceOnUse" gradientTransform="translate(257.379 257.778) rotate(90) scale(345.882 257.622)">
<stop stop-color="#21CA28"/>
<stop offset="0.395833" stop-color="#A7F7AB" stop-opacity="0.81"/>
<stop offset="1" stop-color="#7D7D7D" stop-opacity="0.5"/>
</radialGradient>
</defs>
</svg>
