<svg width="433" height="433" viewBox="0 0 433 433" fill="none" xmlns="http://www.w3.org/2000/svg">
<mask id="mask0_319_380" style="mask-type:alpha" maskUnits="userSpaceOnUse" x="0" y="0" width="433" height="433">
<rect width="433" height="433" rx="216.5" fill="#002851"/>
</mask>
<g mask="url(#mask0_319_380)">
<path fill-rule="evenodd" clip-rule="evenodd" d="M25.069 -73.2354H0.635742V-47.8363H25.069V-73.2354ZM26.069 -73.2354H50.5022V-47.8363H26.069V-73.2354ZM75.9352 -73.2354H51.5022V-47.8363H75.9352V-73.2354ZM76.9352 -73.2354H101.368V-47.8363H76.9352V-73.2354ZM126.802 -73.2354H102.368V-47.8363H126.802V-73.2354ZM127.802 -73.2354H152.235V-47.8363H127.802V-73.2354ZM177.668 -73.2354H153.235V-47.8363H177.668V-73.2354ZM178.668 -73.2354H203.101V-47.8363H178.668V-73.2354ZM228.534 -73.2354H204.101V-47.8363H228.534V-73.2354ZM229.534 -73.2354H253.967V-47.8363H229.534V-73.2354ZM279.401 -73.2354H254.967V-47.8363H279.401V-73.2354ZM280.401 -73.2354H304.834V-47.8363H280.401V-73.2354ZM330.267 -73.2354H305.834V-47.8363H330.267V-73.2354ZM331.267 -73.2354H355.7V-47.8363H331.267V-73.2354ZM381.133 -73.2354H356.7V-47.8363H381.133V-73.2354ZM382.133 -73.2354H406.566V-47.8363H382.133V-73.2354ZM432 -73.2354H407.566V-47.8363H432V-73.2354ZM433 -73.2354V-47.8363V-46.8363V-21.4369V-20.4369V4.96186V5.96186V31.3607V32.3607V57.7597V58.7597V84.1591V85.1591V110.558V111.558V136.957V137.957V163.356V164.356V189.755V190.755V216.154V217.154V242.553V243.553V268.952V269.952V295.351V296.351V321.75V322.75V348.149V349.149V374.548V375.548V400.947V401.947V427.346V428.346V453.745V454.745V480.144V481.144V506.543V507.543H432H407.566H406.566H382.133H381.133H356.7H355.7H331.267H330.267H305.834H304.834H280.401H279.401H254.967H253.967H229.534H228.534H204.101H203.101H178.668H177.668H153.235H152.235H127.802H126.802H102.368H101.368H76.9352H75.9352H51.5022H50.5022H26.069H25.069H0.635742H-0.364258V-73.8953H0.635742V-74.2354H433V-73.2354ZM432 506.543V481.144H407.566V506.543H432ZM432 480.144V454.745H407.566V480.144H432ZM432 453.745V428.346H407.566V453.745H432ZM432 427.346V401.947H407.566V427.346H432ZM432 400.947V375.548H407.566V400.947H432ZM432 374.548V349.149H407.566V374.548H432ZM432 348.149V322.75H407.566V348.149H432ZM432 321.75V296.351H407.566V321.75H432ZM432 295.351V269.952H407.566V295.351H432ZM432 268.952V243.553H407.566V268.952H432ZM432 242.553V217.154H407.566V242.553H432ZM432 216.154V190.755H407.566V216.154H432ZM432 189.755V164.356H407.566V189.755H432ZM432 163.356V137.957H407.566V163.356H432ZM432 136.957V111.558H407.566V136.957H432ZM432 110.558V85.1591H407.566V110.558H432ZM432 84.1591V58.7597H407.566V84.1591H432ZM432 57.7597V32.3607H407.566V57.7597H432ZM432 31.3607V5.96186H407.566V31.3607H432ZM432 4.96186V-20.4369H407.566V4.96186H432ZM432 -21.4369V-46.8363H407.566V-21.4369H432ZM382.133 -46.8363H406.566V-21.4369H382.133V-46.8363ZM382.133 -20.4369H406.566V4.96186H382.133V-20.4369ZM382.133 5.96186H406.566V31.3607H382.133V5.96186ZM382.133 32.3607H406.566V57.7597H382.133V32.3607ZM382.133 58.7597H406.566V84.1591H382.133V58.7597ZM382.133 85.1591H406.566V110.558H382.133V85.1591ZM382.133 111.558H406.566V136.957H382.133V111.558ZM382.133 137.957H406.566V163.356H382.133V137.957ZM382.133 164.356H406.566V189.755H382.133V164.356ZM382.133 190.755H406.566V216.154H382.133V190.755ZM382.133 217.154H406.566V242.553H382.133V217.154ZM382.133 243.553H406.566V268.952H382.133V243.553ZM382.133 269.952H406.566V295.351H382.133V269.952ZM382.133 296.351H406.566V321.75H382.133V296.351ZM382.133 322.75H406.566V348.149H382.133V322.75ZM382.133 349.149H406.566V374.548H382.133V349.149ZM382.133 375.548H406.566V400.947H382.133V375.548ZM382.133 401.947H406.566V427.346H382.133V401.947ZM382.133 428.346H406.566V453.745H382.133V428.346ZM382.133 454.745H406.566V480.144H382.133V454.745ZM382.133 481.144H406.566V506.543H382.133V481.144ZM381.133 -46.8363H356.7V-21.4369H381.133V-46.8363ZM381.133 -20.4369H356.7V4.96186H381.133V-20.4369ZM381.133 5.96186H356.7V31.3607H381.133V5.96186ZM381.133 32.3607H356.7V57.7597H381.133V32.3607ZM381.133 58.7597H356.7V84.1591H381.133V58.7597ZM381.133 85.1591H356.7V110.558H381.133V85.1591ZM381.133 111.558H356.7V136.957H381.133V111.558ZM381.133 137.957H356.7V163.356H381.133V137.957ZM381.133 164.356H356.7V189.755H381.133V164.356ZM381.133 190.755H356.7V216.154H381.133V190.755ZM381.133 217.154H356.7V242.553H381.133V217.154ZM381.133 243.553H356.7V268.952H381.133V243.553ZM381.133 269.952H356.7V295.351H381.133V269.952ZM381.133 296.351H356.7V321.75H381.133V296.351ZM381.133 322.75H356.7V348.149H381.133V322.75ZM381.133 349.149H356.7V374.548H381.133V349.149ZM381.133 375.548H356.7V400.947H381.133V375.548ZM381.133 401.947H356.7V427.346H381.133V401.947ZM381.133 428.346H356.7V453.745H381.133V428.346ZM381.133 454.745H356.7V480.144H381.133V454.745ZM381.133 481.144H356.7V506.543H381.133V481.144ZM331.267 -46.8363H355.7V-21.4369H331.267V-46.8363ZM331.267 -20.4369H355.7V4.96186H331.267V-20.4369ZM331.267 5.96186H355.7V31.3607H331.267V5.96186ZM331.267 32.3607H355.7V57.7597H331.267V32.3607ZM331.267 58.7597H355.7V84.1591H331.267V58.7597ZM331.267 85.1591H355.7V110.558H331.267V85.1591ZM331.267 111.558H355.7V136.957H331.267V111.558ZM331.267 137.957H355.7V163.356H331.267V137.957ZM331.267 164.356H355.7V189.755H331.267V164.356ZM331.267 190.755H355.7V216.154H331.267V190.755ZM331.267 217.154H355.7V242.553H331.267V217.154ZM331.267 243.553H355.7V268.952H331.267V243.553ZM331.267 269.952H355.7V295.351H331.267V269.952ZM331.267 296.351H355.7V321.75H331.267V296.351ZM331.267 322.75H355.7V348.149H331.267V322.75ZM331.267 349.149H355.7V374.548H331.267V349.149ZM331.267 375.548H355.7V400.947H331.267V375.548ZM331.267 401.947H355.7V427.346H331.267V401.947ZM331.267 428.346H355.7V453.745H331.267V428.346ZM331.267 454.745H355.7V480.144H331.267V454.745ZM331.267 481.144H355.7V506.543H331.267V481.144ZM330.267 -46.8363H305.834V-21.4369H330.267V-46.8363ZM330.267 -20.4369H305.834V4.96186H330.267V-20.4369ZM330.267 5.96186H305.834V31.3607H330.267V5.96186ZM330.267 32.3607H305.834V57.7597H330.267V32.3607ZM330.267 58.7597H305.834V84.1591H330.267V58.7597ZM330.267 85.1591H305.834V110.558H330.267V85.1591ZM330.267 111.558H305.834V136.957H330.267V111.558ZM330.267 137.957H305.834V163.356H330.267V137.957ZM330.267 164.356H305.834V189.755H330.267V164.356ZM330.267 190.755H305.834V216.154H330.267V190.755ZM330.267 217.154H305.834V242.553H330.267V217.154ZM330.267 243.553H305.834V268.952H330.267V243.553ZM330.267 269.952H305.834V295.351H330.267V269.952ZM330.267 296.351H305.834V321.75H330.267V296.351ZM330.267 322.75H305.834V348.149H330.267V322.75ZM330.267 349.149H305.834V374.548H330.267V349.149ZM330.267 375.548H305.834V400.947H330.267V375.548ZM330.267 401.947H305.834V427.346H330.267V401.947ZM330.267 428.346H305.834V453.745H330.267V428.346ZM330.267 454.745H305.834V480.144H330.267V454.745ZM330.267 481.144H305.834V506.543H330.267V481.144ZM280.401 -46.8363H304.834V-21.4369H280.401V-46.8363ZM280.401 -20.4369H304.834V4.96186H280.401V-20.4369ZM280.401 5.96186H304.834V31.3607H280.401V5.96186ZM280.401 32.3607H304.834V57.7597H280.401V32.3607ZM280.401 58.7597H304.834V84.1591H280.401V58.7597ZM280.401 85.1591H304.834V110.558H280.401V85.1591ZM280.401 111.558H304.834V136.957H280.401V111.558ZM280.401 137.957H304.834V163.356H280.401V137.957ZM280.401 164.356H304.834V189.755H280.401V164.356ZM280.401 190.755H304.834V216.154H280.401V190.755ZM280.401 217.154H304.834V242.553H280.401V217.154ZM280.401 243.553H304.834V268.952H280.401V243.553ZM280.401 269.952H304.834V295.351H280.401V269.952ZM280.401 296.351H304.834V321.75H280.401V296.351ZM280.401 322.75H304.834V348.149H280.401V322.75ZM280.401 349.149H304.834V374.548H280.401V349.149ZM280.401 375.548H304.834V400.947H280.401V375.548ZM280.401 401.947H304.834V427.346H280.401V401.947ZM280.401 428.346H304.834V453.745H280.401V428.346ZM280.401 454.745H304.834V480.144H280.401V454.745ZM280.401 481.144H304.834V506.543H280.401V481.144ZM279.401 -46.8363H254.967V-21.4369H279.401V-46.8363ZM279.401 -20.4369H254.967V4.96186H279.401V-20.4369ZM279.401 5.96186H254.967V31.3607H279.401V5.96186ZM279.401 32.3607H254.967V57.7597H279.401V32.3607ZM279.401 58.7597H254.967V84.1591H279.401V58.7597ZM279.401 85.1591H254.967V110.558H279.401V85.1591ZM279.401 111.558H254.967V136.957H279.401V111.558ZM279.401 137.957H254.967V163.356H279.401V137.957ZM279.401 164.356H254.967V189.755H279.401V164.356ZM279.401 190.755H254.967V216.154H279.401V190.755ZM279.401 217.154H254.967V242.553H279.401V217.154ZM279.401 243.553H254.967V268.952H279.401V243.553ZM279.401 269.952H254.967V295.351H279.401V269.952ZM279.401 296.351H254.967V321.75H279.401V296.351ZM279.401 322.75H254.967V348.149H279.401V322.75ZM279.401 349.149H254.967V374.548H279.401V349.149ZM279.401 375.548H254.967V400.947H279.401V375.548ZM279.401 401.947H254.967V427.346H279.401V401.947ZM279.401 428.346H254.967V453.745H279.401V428.346ZM279.401 454.745H254.967V480.144H279.401V454.745ZM279.401 481.144H254.967V506.543H279.401V481.144ZM229.534 -46.8363H253.967V-21.4369H229.534V-46.8363ZM229.534 -20.4369H253.967V4.96186H229.534V-20.4369ZM229.534 5.96186H253.967V31.3607H229.534V5.96186ZM229.534 32.3607H253.967V57.7597H229.534V32.3607ZM229.534 58.7597H253.967V84.1591H229.534V58.7597ZM229.534 85.1591H253.967V110.558H229.534V85.1591ZM229.534 111.558H253.967V136.957H229.534V111.558ZM229.534 137.957H253.967V163.356H229.534V137.957ZM229.534 164.356H253.967V189.755H229.534V164.356ZM229.534 190.755H253.967V216.154H229.534V190.755ZM229.534 217.154H253.967V242.553H229.534V217.154ZM229.534 243.553H253.967V268.952H229.534V243.553ZM229.534 269.952H253.967V295.351H229.534V269.952ZM229.534 296.351H253.967V321.75H229.534V296.351ZM229.534 322.75H253.967V348.149H229.534V322.75ZM229.534 349.149H253.967V374.548H229.534V349.149ZM229.534 375.548H253.967V400.947H229.534V375.548ZM229.534 401.947H253.967V427.346H229.534V401.947ZM229.534 428.346H253.967V453.745H229.534V428.346ZM229.534 454.745H253.967V480.144H229.534V454.745ZM229.534 481.144H253.967V506.543H229.534V481.144ZM228.534 -46.8363H204.101V-21.4369H228.534V-46.8363ZM228.534 -20.4369H204.101V4.96186H228.534V-20.4369ZM228.534 5.96186H204.101V31.3607H228.534V5.96186ZM228.534 32.3607H204.101V57.7597H228.534V32.3607ZM228.534 58.7597H204.101V84.1591H228.534V58.7597ZM228.534 85.1591H204.101V110.558H228.534V85.1591ZM228.534 111.558H204.101V136.957H228.534V111.558ZM228.534 137.957H204.101V163.356H228.534V137.957ZM228.534 164.356H204.101V189.755H228.534V164.356ZM228.534 190.755H204.101V216.154H228.534V190.755ZM228.534 217.154H204.101V242.553H228.534V217.154ZM228.534 243.553H204.101V268.952H228.534V243.553ZM228.534 269.952H204.101V295.351H228.534V269.952ZM228.534 296.351H204.101V321.75H228.534V296.351ZM228.534 322.75H204.101V348.149H228.534V322.75ZM228.534 349.149H204.101V374.548H228.534V349.149ZM228.534 375.548H204.101V400.947H228.534V375.548ZM228.534 401.947H204.101V427.346H228.534V401.947ZM228.534 428.346H204.101V453.745H228.534V428.346ZM228.534 454.745H204.101V480.144H228.534V454.745ZM228.534 481.144H204.101V506.543H228.534V481.144ZM178.668 -46.8363H203.101V-21.4369H178.668V-46.8363ZM178.668 -20.4369H203.101V4.96186H178.668V-20.4369ZM178.668 5.96186H203.101V31.3607H178.668V5.96186ZM178.668 32.3607H203.101V57.7597H178.668V32.3607ZM178.668 58.7597H203.101V84.1591H178.668V58.7597ZM178.668 85.1591H203.101V110.558H178.668V85.1591ZM178.668 111.558H203.101V136.957H178.668V111.558ZM178.668 137.957H203.101V163.356H178.668V137.957ZM178.668 164.356H203.101V189.755H178.668V164.356ZM178.668 190.755H203.101V216.154H178.668V190.755ZM178.668 217.154H203.101V242.553H178.668V217.154ZM178.668 243.553H203.101V268.952H178.668V243.553ZM178.668 269.952H203.101V295.351H178.668V269.952ZM178.668 296.351H203.101V321.75H178.668V296.351ZM178.668 322.75H203.101V348.149H178.668V322.75ZM178.668 349.149H203.101V374.548H178.668V349.149ZM178.668 375.548H203.101V400.947H178.668V375.548ZM178.668 401.947H203.101V427.346H178.668V401.947ZM178.668 428.346H203.101V453.745H178.668V428.346ZM178.668 454.745H203.101V480.144H178.668V454.745ZM178.668 481.144H203.101V506.543H178.668V481.144ZM177.668 -46.8363H153.235V-21.4369H177.668V-46.8363ZM177.668 -20.4369H153.235V4.96186H177.668V-20.4369ZM177.668 5.96186H153.235V31.3607H177.668V5.96186ZM177.668 32.3607H153.235V57.7597H177.668V32.3607ZM177.668 58.7597H153.235V84.1591H177.668V58.7597ZM177.668 85.1591H153.235V110.558H177.668V85.1591ZM177.668 111.558H153.235V136.957H177.668V111.558ZM177.668 137.957H153.235V163.356H177.668V137.957ZM177.668 164.356H153.235V189.755H177.668V164.356ZM177.668 190.755H153.235V216.154H177.668V190.755ZM177.668 217.154H153.235V242.553H177.668V217.154ZM177.668 243.553H153.235V268.952H177.668V243.553ZM177.668 269.952H153.235V295.351H177.668V269.952ZM177.668 296.351H153.235V321.75H177.668V296.351ZM177.668 322.75H153.235V348.149H177.668V322.75ZM177.668 349.149H153.235V374.548H177.668V349.149ZM177.668 375.548H153.235V400.947H177.668V375.548ZM177.668 401.947H153.235V427.346H177.668V401.947ZM177.668 428.346H153.235V453.745H177.668V428.346ZM177.668 454.745H153.235V480.144H177.668V454.745ZM177.668 481.144H153.235V506.543H177.668V481.144ZM127.802 -46.8363H152.235V-21.4369H127.802V-46.8363ZM127.802 -20.4369H152.235V4.96186H127.802V-20.4369ZM127.802 5.96186H152.235V31.3607H127.802V5.96186ZM127.802 32.3607H152.235V57.7597H127.802V32.3607ZM127.802 58.7597H152.235V84.1591H127.802V58.7597ZM127.802 85.1591H152.235V110.558H127.802V85.1591ZM127.802 111.558H152.235V136.957H127.802V111.558ZM127.802 137.957H152.235V163.356H127.802V137.957ZM127.802 164.356H152.235V189.755H127.802V164.356ZM127.802 190.755H152.235V216.154H127.802V190.755ZM127.802 217.154H152.235V242.553H127.802V217.154ZM127.802 243.553H152.235V268.952H127.802V243.553ZM127.802 269.952H152.235V295.351H127.802V269.952ZM127.802 296.351H152.235V321.75H127.802V296.351ZM127.802 322.75H152.235V348.149H127.802V322.75ZM127.802 349.149H152.235V374.548H127.802V349.149ZM127.802 375.548H152.235V400.947H127.802V375.548ZM127.802 401.947H152.235V427.346H127.802V401.947ZM127.802 428.346H152.235V453.745H127.802V428.346ZM127.802 454.745H152.235V480.144H127.802V454.745ZM127.802 481.144H152.235V506.543H127.802V481.144ZM126.802 -46.8363H102.368V-21.4369H126.802V-46.8363ZM126.802 -20.4369H102.368V4.96186H126.802V-20.4369ZM126.802 5.96186H102.368V31.3607H126.802V5.96186ZM126.802 32.3607H102.368V57.7597H126.802V32.3607ZM126.802 58.7597H102.368V84.1591H126.802V58.7597ZM126.802 85.1591H102.368V110.558H126.802V85.1591ZM126.802 111.558H102.368V136.957H126.802V111.558ZM126.802 137.957H102.368V163.356H126.802V137.957ZM126.802 164.356H102.368V189.755H126.802V164.356ZM126.802 190.755H102.368V216.154H126.802V190.755ZM126.802 217.154H102.368V242.553H126.802V217.154ZM126.802 243.553H102.368V268.952H126.802V243.553ZM126.802 269.952H102.368V295.351H126.802V269.952ZM126.802 296.351H102.368V321.75H126.802V296.351ZM126.802 322.75H102.368V348.149H126.802V322.75ZM126.802 349.149H102.368V374.548H126.802V349.149ZM126.802 375.548H102.368V400.947H126.802V375.548ZM126.802 401.947H102.368V427.346H126.802V401.947ZM126.802 428.346H102.368V453.745H126.802V428.346ZM126.802 454.745H102.368V480.144H126.802V454.745ZM126.802 481.144H102.368V506.543H126.802V481.144ZM76.9352 -46.8363H101.368V-21.4369H76.9352V-46.8363ZM76.9352 -20.4369H101.368V4.96186H76.9352V-20.4369ZM76.9352 5.96186H101.368V31.3607H76.9352V5.96186ZM76.9352 32.3607H101.368V57.7597H76.9352V32.3607ZM76.9352 58.7597H101.368V84.1591H76.9352V58.7597ZM76.9352 85.1591H101.368V110.558H76.9352V85.1591ZM76.9352 111.558H101.368V136.957H76.9352V111.558ZM76.9352 137.957H101.368V163.356H76.9352V137.957ZM76.9352 164.356H101.368V189.755H76.9352V164.356ZM76.9352 190.755H101.368V216.154H76.9352V190.755ZM76.9352 217.154H101.368V242.553H76.9352V217.154ZM76.9352 243.553H101.368V268.952H76.9352V243.553ZM76.9352 269.952H101.368V295.351H76.9352V269.952ZM76.9352 296.351H101.368V321.75H76.9352V296.351ZM76.9352 322.75H101.368V348.149H76.9352V322.75ZM76.9352 349.149H101.368V374.548H76.9352V349.149ZM76.9352 375.548H101.368V400.947H76.9352V375.548ZM76.9352 401.947H101.368V427.346H76.9352V401.947ZM76.9352 428.346H101.368V453.745H76.9352V428.346ZM76.9352 454.745H101.368V480.144H76.9352V454.745ZM76.9352 481.144H101.368V506.543H76.9352V481.144ZM75.9352 -46.8363H51.5022V-21.4369H75.9352V-46.8363ZM75.9352 -20.4369H51.5022V4.96186H75.9352V-20.4369ZM75.9352 5.96186H51.5022V31.3607H75.9352V5.96186ZM75.9352 32.3607H51.5022V57.7597H75.9352V32.3607ZM75.9352 58.7597H51.5022V84.1591H75.9352V58.7597ZM75.9352 85.1591H51.5022V110.558H75.9352V85.1591ZM75.9352 111.558H51.5022V136.957H75.9352V111.558ZM75.9352 137.957H51.5022V163.356H75.9352V137.957ZM75.9352 164.356H51.5022V189.755H75.9352V164.356ZM75.9352 190.755H51.5022V216.154H75.9352V190.755ZM75.9352 217.154H51.5022V242.553H75.9352V217.154ZM75.9352 243.553H51.5022V268.952H75.9352V243.553ZM75.9352 269.952H51.5022V295.351H75.9352V269.952ZM75.9352 296.351H51.5022V321.75H75.9352V296.351ZM75.9352 322.75H51.5022V348.149H75.9352V322.75ZM75.9352 349.149H51.5022V374.548H75.9352V349.149ZM75.9352 375.548H51.5022V400.947H75.9352V375.548ZM75.9352 401.947H51.5022V427.346H75.9352V401.947ZM75.9352 428.346H51.5022V453.745H75.9352V428.346ZM75.9352 454.745H51.5022V480.144H75.9352V454.745ZM75.9352 481.144H51.5022V506.543H75.9352V481.144ZM26.069 -46.8363H50.5022V-21.4369H26.069V-46.8363ZM26.069 -20.4369H50.5022V4.96186H26.069V-20.4369ZM26.069 5.96186H50.5022V31.3607H26.069V5.96186ZM26.069 32.3607H50.5022V57.7597H26.069V32.3607ZM26.069 58.7597H50.5022V84.1591H26.069V58.7597ZM26.069 85.1591H50.5022V110.558H26.069V85.1591ZM26.069 111.558H50.5022V136.957H26.069V111.558ZM26.069 137.957H50.5022V163.356H26.069V137.957ZM26.069 164.356H50.5022V189.755H26.069V164.356ZM26.069 190.755H50.5022V216.154H26.069V190.755ZM26.069 217.154H50.5022V242.553H26.069V217.154ZM26.069 243.553H50.5022V268.952H26.069V243.553ZM26.069 269.952H50.5022V295.351H26.069V269.952ZM26.069 296.351H50.5022V321.75H26.069V296.351ZM26.069 322.75H50.5022V348.149H26.069V322.75ZM26.069 349.149H50.5022V374.548H26.069V349.149ZM26.069 375.548H50.5022V400.947H26.069V375.548ZM26.069 401.947H50.5022V427.346H26.069V401.947ZM26.069 428.346H50.5022V453.745H26.069V428.346ZM26.069 454.745H50.5022V480.144H26.069V454.745ZM26.069 481.144H50.5022V506.543H26.069V481.144ZM25.069 -46.8363H0.635742V-21.4369H25.069V-46.8363ZM25.069 -20.4369H0.635742V4.96186H25.069V-20.4369ZM25.069 5.96186H0.635742V31.3607H25.069V5.96186ZM25.069 32.3607H0.635742V57.7597H25.069V32.3607ZM25.069 58.7597H0.635742V84.1591H25.069V58.7597ZM25.069 85.1591H0.635742V110.558H25.069V85.1591ZM25.069 111.558H0.635742V136.957H25.069V111.558ZM25.069 137.957H0.635742V163.356H25.069V137.957ZM25.069 164.356H0.635742V189.755H25.069V164.356ZM25.069 190.755H0.635742V216.154H25.069V190.755ZM25.069 217.154H0.635742V242.553H25.069V217.154ZM25.069 243.553H0.635742V268.952H25.069V243.553ZM25.069 269.952H0.635742V295.351H25.069V269.952ZM25.069 296.351H0.635742V321.75H25.069V296.351ZM25.069 322.75H0.635742V348.149H25.069V322.75ZM25.069 349.149H0.635742V374.548H25.069V349.149ZM25.069 375.548H0.635742V400.947H25.069V375.548ZM25.069 401.947H0.635742V427.346H25.069V401.947ZM25.069 428.346H0.635742V453.745H25.069V428.346ZM25.069 454.745H0.635742V480.144H25.069V454.745ZM25.069 481.144H0.635742V506.543H25.069V481.144Z" fill="url(#paint0_radial_319_380)"/>
</g>
<defs>
<radialGradient id="paint0_radial_319_380" cx="0" cy="0" r="1" gradientUnits="userSpaceOnUse" gradientTransform="translate(216.318 216.654) rotate(90) scale(290.889 216.682)">
<stop stop-color="#21CA28"/>
<stop offset="0.395833" stop-color="#A7F7AB" stop-opacity="0.81"/>
<stop offset="1" stop-color="#7D7D7D" stop-opacity="0.5"/>
</radialGradient>
</defs>
</svg>
