<svg width="40" height="32" viewBox="0 0 40 32" fill="none" xmlns="http://www.w3.org/2000/svg">
<path d="M39.9226 3.80941C38.4485 4.44882 36.8745 4.88411 35.213 5.08085C36.9044 4.07992 38.2061 2.49861 38.8182 0.614817C37.2342 1.52475 35.4778 2.18875 33.609 2.55764C32.1149 0.983707 29.9863 0 27.6227 0C23.0956 0 19.4229 3.61512 19.4229 8.0664C19.4229 8.70581 19.4978 9.32063 19.6352 9.91085C12.8195 9.59115 6.77576 6.3695 2.73079 1.50015C2.02124 2.68306 1.62149 4.06025 1.62149 5.56041C1.62149 8.36397 3.07058 10.8306 5.26921 12.2791C3.92505 12.2373 2.65834 11.8734 1.55403 11.2708V11.3692C1.55403 15.2794 4.37726 18.5453 8.13242 19.288C7.44285 19.47 6.7183 19.5684 5.97127 19.5684C5.44659 19.5684 4.94691 19.5192 4.44722 19.4258C5.49656 22.6326 8.51968 24.9665 12.1174 25.0329C9.31918 27.1971 5.77139 28.4857 1.94878 28.4857C1.29919 28.4857 0.649594 28.4488 0 28.375C3.64772 30.6622 7.94503 32 12.5921 32C27.6827 32 35.9275 19.7037 35.9275 9.05503C35.9275 8.71073 35.9275 8.36643 35.9026 8.02214C37.5016 6.89088 38.9007 5.4645 40 3.84138L39.9226 3.80941Z" fill="#0F1025"/>
</svg>
