<svg width="20" height="16" viewBox="0 0 20 16" fill="none" xmlns="http://www.w3.org/2000/svg">
<path d="M19.9613 1.9047C19.2242 2.22441 18.4372 2.44205 17.6065 2.54042C18.4522 2.03996 19.1031 1.24931 19.4091 0.307409C18.6171 0.762374 17.7389 1.09438 16.8045 1.27882C16.0575 0.491854 14.9931 0 13.8114 0C11.5478 0 9.71143 1.80756 9.71143 4.0332C9.71143 4.35291 9.74891 4.66031 9.81761 4.95542C6.40974 4.79557 3.38788 3.18475 1.3654 0.750077C1.01062 1.34153 0.810744 2.03013 0.810744 2.7802C0.810744 4.18199 1.53529 5.41531 2.6346 6.13956C1.96252 6.11866 1.32917 5.93668 0.777014 5.63542V5.6846C0.777014 7.63972 2.18863 9.27267 4.06621 9.64402C3.72143 9.73501 3.35915 9.7842 2.98563 9.7842C2.7233 9.7842 2.47345 9.75961 2.22361 9.71288C2.74828 11.3163 4.25984 12.4832 6.05871 12.5164C4.65959 13.5985 2.8857 14.2429 0.974391 14.2429C0.649594 14.2429 0.324797 14.2244 0 14.1875C1.82386 15.3311 3.97252 16 6.29606 16C13.8413 16 17.9638 9.85183 17.9638 4.52751C17.9638 4.35537 17.9638 4.18322 17.9513 4.01107C18.7508 3.44544 19.4503 2.73225 20 1.92069L19.9613 1.9047Z" fill="white"/>
</svg>
