<svg width="24" height="24" viewBox="0 0 24 24" fill="none" xmlns="http://www.w3.org/2000/svg">
<g clip-path="url(#clip0_43_562)">
<path d="M18.8489 8.79379C19.4237 8.31379 20.0969 7.74139 20.3993 7.10539C19.9073 7.35019 19.3253 7.50979 18.6725 7.59859C19.2701 7.16059 19.7597 6.61699 20.0117 5.83579C19.3961 6.16219 18.7577 6.45979 17.9693 6.61219C16.1093 4.35619 11.6549 6.17779 12.4397 9.53419C9.31131 9.34219 7.4045 7.92619 5.81931 6.18739C4.91532 7.65738 5.70169 9.87623 6.7709 10.4834C6.2177 10.451 5.80012 10.2794 5.3981 10.097C5.4533 11.9438 6.47211 12.8246 7.8977 13.3034C7.4621 13.397 6.9809 13.4186 6.52492 13.3382C6.9665 14.6318 7.9001 15.4358 9.4817 15.5906C8.4101 16.5074 6.4121 17.1518 4.79931 16.8938C6.17451 17.7686 7.7573 18.4706 9.93888 18.3722C15.2285 18.1334 18.7721 14.3366 18.8489 8.79379ZM12 0C18.6274 0 24 5.37258 24 12C24 18.6275 18.6274 24 12 24C5.37258 24 0 18.6275 0 12C0 5.37258 5.37258 0 12 0Z" fill="black"/>
</g>
<defs>
<clipPath id="clip0_43_562">
<rect width="24" height="24" fill="white"/>
</clipPath>
</defs>
</svg>
